<?xml version="1.0" encoding="UTF-8"?>
<svg id="Calque_1" data-name="Calque 1" xmlns="http://www.w3.org/2000/svg" version="1.1" viewBox="0 0 71 51">
  <defs>
    <style>
      .cls-1 {
        stroke: #28ffcc;
        stroke-linecap: round;
        stroke-linejoin: round;
        stroke-width: 5px;
      }

      .cls-1, .cls-2 {
        fill: none;
      }

      .cls-2 {
        stroke: #3600ba;
        stroke-width: 2.5px;
      }

      .cls-3 {
        fill: #fff;
        stroke-width: 0px;
      }
    </style>
  </defs>
  <g id="Rectangle_134" data-name="Rectangle 134">
    <path class="cls-3" d="M25.5,0h20c14.1,0,25.5,11.4,25.5,25.5h0c0,14.1-11.4,25.5-25.5,25.5h-20C11.4,51,0,39.6,0,25.5h0C0,11.4,11.4,0,25.5,0Z"/>
    <path class="cls-2" d="M25.5,1.2h20c13.4,0,24.2,10.9,24.2,24.2h0c0,13.4-10.9,24.2-24.2,24.2h-20c-13.4,0-24.2-10.9-24.2-24.2h0C1.2,12.1,12.1,1.2,25.5,1.2Z"/>
  </g>
  <path id="Tracé_150" data-name="Tracé 150" class="cls-1" d="M21.7,24.6l9.5,12,15.2-23.1"/>
</svg>