<?xml version="1.0" encoding="UTF-8"?>
<svg id="Calque_1" data-name="Calque 1" xmlns="http://www.w3.org/2000/svg" version="1.1" viewBox="0 0 1031.3 270">
  <defs>
    <style>
      .cls-1 {
        fill: #0079be;
      }

      .cls-1, .cls-2, .cls-3 {
        stroke-width: 0px;
      }

      .cls-2 {
        fill: #fff;
      }

      .cls-3 {
        fill: #211e1f;
      }
    </style>
  </defs>
  <g id="_Layer_1" data-name=" #Layer_1">
    <path class="cls-1" d="M199.7,267.7c72.6.3,138.8-59.2,138.8-131.6S272.2,2.2,199.7,2.2h-62.4C63.8,2.2,3.4,57,3.4,136.1s60.4,131.9,133.9,131.6h62.4Z"/>
    <path class="cls-2" d="M137.5,13.2c-67.1,0-121.5,54.4-121.5,121.5,0,67.1,54.4,121.5,121.5,121.5,67.1,0,121.5-54.4,121.5-121.5,0-67.1-54.4-121.5-121.5-121.5ZM60.5,134.7h0c0-32.8,20.5-60.8,49.4-71.9v143.8c-28.9-11.1-49.4-39.1-49.4-71.9ZM165.1,206.6h0V62.8c28.9,11.1,49.4,39.1,49.5,71.9,0,32.8-20.6,60.8-49.5,71.9Z"/>
    <path class="cls-3" d="M381,59.4c0-12.6-6.5-11.7-12.8-11.9v-3.6c5.4.3,11,.3,16.5.3s13.8-.3,24.2-.3c36.1,0,55.8,24.1,55.8,48.9s-8.1,48.6-57.5,48.6-13.7-.3-20.2-.3-12.4.1-18.7.3v-3.6c8.4-.8,12.4-1.1,12.8-10.6V59.4h0ZM394.7,124.8h0c0,10.8,7.7,12,14.5,12,30.2,0,40.1-22.8,40.1-43.6s-16.8-44.9-43.7-44.9-8.4.4-10.9.6v76h0Z"/>
    <path class="cls-3" d="M469.6,137.7h2.6c3.9,0,6.7,0,6.7-4.6v-37.8c0-6.1-2.1-7-7.3-9.8v-2.2c6.6-2,14.4-4.6,14.9-5,1-.6,1.8-.7,2.5-.7s1,.8,1,2v53.6c0,4.6,3.1,4.6,7,4.6h2.4v3.6c-4.8,0-9.6-.3-14.7-.3s-10.1.1-15.2.3v-3.6h0ZM484.5,56h0c-3.6,0-6.8-3.3-6.8-7s3.4-6.7,6.8-6.7,6.8,2.9,6.8,6.7-3.1,7-6.8,7Z"/>
    <path class="cls-3" d="M512.7,96.1c0-5.2-1.5-6.6-8.1-9.2v-2.6c6-2,11.7-3.8,18.4-6.7.4,0,.8.3.8,1.4v9.1c8-5.7,14.8-10.5,24.2-10.5s16,8.7,16,19.5v36c0,4.6,3.1,4.6,7,4.6h2.5v3.6c-4.9,0-9.8-.3-14.8-.3s-10.1.1-15.1.3v-3.6h2.5c3.9,0,6.7,0,6.7-4.6v-36.2c0-8-4.9-11.9-12.8-11.9s-11.6,3.6-16.2,6.7v41.3c0,4.6,3.1,4.6,7,4.6h2.5v3.6c-4.9,0-9.8-.3-14.8-.3s-10.1.1-15.1.3v-3.6h2.5c3.9,0,6.7,0,6.7-4.6v-37h0Z"/>
    <path class="cls-3" d="M584.2,102.8c-.3,1.3-.3,3.4,0,8.1.8,13.3,9.4,24.1,20.5,24.1s13.7-4.2,18.9-9.4l1.9,2c-6.4,8.5-14.4,15.8-25.8,15.8-22.2,0-26.7-21.5-26.7-30.4,0-27.4,18.4-35.5,28.2-35.5s23.5,7.1,23.6,21.9c0,.8,0,1.7-.1,2.5l-1.3.8h-39.2ZM608.9,98.3h0c3.5,0,3.9-1.8,3.9-3.5,0-7.1-4.3-12.8-12.1-12.8s-14.4,6.3-16,16.3h24.3Z"/>
    <path class="cls-3" d="M628,137.7h3.8c3.9,0,6.7,0,6.7-4.6v-39.2c0-4.3-5.2-5.2-7.3-6.3v-2.1c10.2-4.3,15.8-8,17.1-8s1.2.4,1.2,1.8v12.6h.3c3.5-5.4,9.4-14.4,17.9-14.4s8,2.4,8,7.4-2.6,7.1-6.6,7.1-4.3-3.4-9.2-3.4-10.2,3.2-10.2,11.6v32.8c0,4.6,2.8,4.6,6.7,4.6h7.8v3.6c-7.7-.1-13.5-.3-19.5-.3s-11.6.1-16.6.3v-3.6h0Z"/>
    <path class="cls-3" d="M681.8,121.9c1.8,9.2,7.4,17,17.6,17s11.3-5,11.3-9.9c0-16.5-30.4-11.2-30.4-33.6s6.3-17.9,21.6-17.9,10.5,1.3,15.9,4.1l1,14.2h-3.2c-1.4-8.8-6.3-13.8-15.2-13.8s-10.9,3.2-10.9,9.2c0,16.4,32.4,11.3,32.4,33.2s-7.4,19-24,19-12.1-2-17-4.7l-1.5-16.1,2.5-.7h0Z"/>
    <path class="cls-3" d="M847.9,69.1h-3.5c-2.7-16.3-14.2-22.9-29.9-22.9s-39.4,10.7-39.4,44.3,20.1,48.5,41.6,48.5,25.3-9.5,28.1-24.2l3.2.8-3.2,20.4c-5.9,3.6-21.6,7.4-30.9,7.4-32.7,0-53.3-21.1-53.3-52.5s25.5-49.2,52.9-49.2,22.2,3.6,32.9,7.4l1.4,20h0Z"/>
    <path class="cls-3" d="M852.9,137.7h2.6c3.9,0,6.7,0,6.7-4.6V55.3c0-9.1-2.1-9.4-7.4-10.9v-2.2c5.6-1.8,11.4-4.3,14.4-6,1.5-.8,2.6-1.5,3.1-1.5.9,0,1.1.8,1.1,2v96.5c0,4.6,3.1,4.6,7,4.6h2.4v3.6c-4.7,0-9.6-.3-14.6-.3s-10,.1-15.2.3v-3.6h0Z"/>
    <path class="cls-3" d="M942.6,133.6c0,2.5,1.5,2.7,3.9,2.7s3.8-.1,5.6-.1v2.9c-6,.6-17.5,3.5-20.1,4.3l-.7-.4v-11.3c-8.4,6.8-14.8,11.7-24.7,11.7s-15.4-4.9-15.4-16.6v-35.8c0-3.6-.6-7.1-8.4-7.8v-2.7c5-.1,16.2-1,18-1s1.5,1,1.5,4v36c0,4.2,0,16.2,12.1,16.2s11-3.6,16.9-8.5v-37.6c0-2.8-6.7-4.3-11.7-5.7v-2.5c12.5-.8,20.4-2,21.8-2s1.1,1,1.1,2.5v51.5h0Z"/>
    <path class="cls-3" d="M970.3,87.6c5.6-4.7,13.1-10.1,20.8-10.1,16.2,0,26,14.1,26,29.3s-13.4,36.6-33.4,36.6-15.8-3.4-19.4-4.9l-4.2,3.2-2.9-1.5c1.2-8.2,1.9-16.3,1.9-24.9v-60c0-9.1-2.1-9.4-7.4-10.9v-2.2c5.6-1.8,11.4-4.3,14.4-6,1.5-.8,2.6-1.5,3.1-1.5.8,0,1.1.8,1.1,2v51h0ZM970.3,125.5h0c0,5.3,5,14.3,14.4,14.3,14.9,0,21.2-14.7,21.2-27.1s-11.4-27.6-22.3-27.6-9.5,3.4-13.3,6.6v33.9h0Z"/>
    <path class="cls-3" d="M368,222.5h1.1c2.7,0,5.6-.4,5.6-4.3v-39.8c0-4-2.9-4.3-5.6-4.3h-1.1v-2.3c3,0,7.5.3,11.3.3s8.3-.3,11.9-.3v2.3h-1.1c-2.7,0-5.6.4-5.6,4.3v39.8c0,4,2.9,4.3,5.6,4.3h1.1v2.3c-3.6,0-8.2-.3-12-.3s-8.2.3-11.2.3v-2.3h0Z"/>
    <path class="cls-3" d="M391.2,225.1c-3.7,0-8.2-.3-12-.3s-8.2.3-11.2.3h-.3v-2.9h1.4c2.8,0,5.3-.3,5.3-4v-39.8c0-3.7-2.5-4-5.3-4h-1.4v-2.9h.3c3,0,7.5.3,11.3.3s8.3-.3,11.9-.3h.3v2.9h-1.4c-2.8,0-5.3.3-5.3,4v39.8c0,3.7,2.5,3.9,5.3,4h1.4v2.9h-.3ZM390.9,224.5h0v-1.6h-.7c-2.7,0-5.9-.5-6-4.7v-39.8c0-4.2,3.2-4.7,6-4.7h.7v-1.6c-3.5,0-7.9.3-11.6.3s-8-.3-10.9-.3v1.6h.7c2.7,0,5.9.5,5.9,4.7v39.8c0,4.2-3.2,4.7-5.9,4.7h-.7v1.6c2.9,0,7.2-.3,10.8-.3,3.7,0,8.1.3,11.7.3h0Z"/>
    <path class="cls-3" d="M443.4,209.8h.2v-28.6c0-6.2-4.3-7.1-6.6-7.1h-1.7v-2.3c3.6,0,7.1.3,10.6.3s6.2-.3,9.4-.3v2.3h-1.1c-3.2,0-6.8.6-6.8,9.6v34.6c0,2.7,0,5.3.5,7.7h-2.9l-39.1-43.6v31.3c0,6.6,1.3,8.9,7.1,8.9h1.3v2.3c-3.3,0-6.5-.3-9.8-.3s-6.9.3-10.3.3v-2.3h1.1c5.2,0,6.8-3.6,6.8-9.6v-32c0-4.3-3.5-6.8-6.9-6.8h-1v-2.3c2.9,0,5.8.3,8.7.3s4.5-.3,6.8-.3l33.8,38.1h0Z"/>
    <path class="cls-3" d="M447.8,226.3h-3.1c0-.1-38.5-43.1-38.5-43.1v30.4c0,6.6,1.1,8.5,6.8,8.6h1.6v2.9h-.3c-3.3,0-6.6-.3-9.8-.3s-6.9.3-10.3.3h-.3v-2.9h1.4c5,0,6.5-3.3,6.5-9.3v-32c0-4-3.3-6.5-6.6-6.5h-1.3v-2.9h.3c2.9,0,5.9.3,8.7.3s4.5-.3,7-.2l33.4,37.6v-27.9c0-6-4.1-6.8-6.3-6.8h-2v-2.9h.3c3.6,0,7.1.3,10.6.3s6.2-.3,9.3-.3h.3v2.9h-1.5c-3.1,0-6.4.4-6.4,9.3v34.6c0,2.7,0,5.3.4,7.6v.4c0,0-.3,0-.3,0h0ZM444.9,225.6h2.5c-.3-2.3-.4-4.8-.4-7.3v-34.6c0-9.1,3.8-10,7.1-10h.8v-1.6c-3,0-6,.3-9,.3s-6.9-.3-10.3-.3v1.6s1.3,0,1.3,0c2.3,0,6.9,1,6.9,7.5v28.7c-.1,0-.3.2-.3.2l-.3.2-33.8-38.2c-2.3,0-4.5.3-6.8.3s-5.6-.3-8.4-.3v1.6s.7,0,.7,0c3.6,0,7.2,2.7,7.2,7.2v32c0,6.1-1.7,10-7.2,10h-.7s0,1.6,0,1.6c3.3,0,6.7-.3,10-.3s6.3.3,9.5.3v-1.6h-1c-6,0-7.5-2.6-7.5-9.2v-32.2l39.4,44.1h0ZM443.4,209.8h0l.2-.2-.2.2ZM443.2,209.7h0s0,0,0,0h0Z"/>
    <path class="cls-3" d="M466.6,175.5c-5.7,0-5.9,1.4-7.1,6.9h-2.3c.3-2.1.7-4.2.9-6.5.3-2.1.5-4.2.5-6.4h1.8c.6,2.3,2.5,2.2,4.6,2.2h39.2c2.1,0,4,0,4.1-2.4l1.8.3c-.3,2.1-.6,4.1-.8,6.2-.1,2-.1,4.1-.1,6.1l-2.3.8c-.2-2.8-.5-7.3-5.6-7.3h-12.5v40.4c0,5.9,2.7,6.5,6.3,6.5h1.4v2.3c-3,0-8.3-.3-12.4-.3s-9.9.3-12.8.3v-2.3h1.4c4.2,0,6.3-.4,6.3-6.4v-40.6h-12.5Z"/>
    <path class="cls-3" d="M496.6,225.1c-3,0-8.3-.3-12.4-.3s-9.9.3-12.8.3h-.3v-2.9h1.8c4.2-.1,5.9-.2,6-6v-40.2h-12.1v-.7h12.8v40.9c0,6.1-2.5,6.7-6.6,6.7h-1.1v1.6c3,0,8.1-.3,12.5-.3s9,.3,12,.3v-1.6h-1.1c-3.7,0-6.6-.9-6.6-6.9v-40.8h12.8c5.1,0,5.8,4.4,5.9,7.2l1.6-.6c0-2,0-4,.1-6,.2-2,.5-3.9.8-5.8l-1.2-.2c-.4,2.2-2.5,2.3-4.4,2.3h-39.6c-1.8,0-3.7,0-4.4-2.2h-1.3c0,2.1-.2,4.1-.4,6.2-.2,2.1-.6,4.1-.9,6.1h1.6c1-5.3,1.7-7,7.3-6.9v.7c-5.6.1-5.5,1-6.7,6.7v.3h-3v-.4c.3-2.1.7-4.2,1-6.5.3-2.1.5-4.2.5-6.4v-.3h2.4v.2c.6,1.9,2,1.9,3.9,2h39.6c2.1,0,3.7,0,3.8-2v-.4s.4,0,.4,0l2.1.3v.3c-.4,2-.7,4.1-.9,6.1-.2,2-.2,4.1-.2,6.1v.2h-.2c0,0-2.7,1.1-2.7,1.1v-.4c-.2-2.9-.5-7-5.3-7h-12.1v40.1c0,5.7,2.3,6.1,6,6.2h1.8v2.9h-.3Z"/>
    <path class="cls-3" d="M512.6,222.5h1.1c2.7,0,5.6-.4,5.6-4.3v-39.8c0-4-2.9-4.3-5.6-4.3h-1.1v-2.3c4.6,0,12.5.3,18.9.3s14.3-.3,19.4-.3c-.1,3.3,0,8.3.2,11.6l-2.3.6c-.4-4.9-1.3-8.9-9.3-8.9h-10.6v19.9h9c4.6,0,5.6-2.6,6-6.7h2.3c-.1,3-.2,5.9-.2,8.9s0,5.8.2,8.7l-2.3.5c-.4-4.6-.7-7.5-5.9-7.5h-9.1v17.7c0,4.9,4.4,4.9,9.3,4.9,9.1,0,13.1-.6,15.4-9.3l2.1.5c-1,4-1.9,8.1-2.6,12.1-4.9,0-13.6-.3-20.4-.3s-15.9.3-20.2.3v-2.3h0Z"/>
    <path class="cls-3" d="M553.2,225.1c-4.9,0-13.6-.3-20.4-.3s-15.9.3-20.2.3h-.3v-2.9h1.4c2.8,0,5.3-.3,5.3-4v-39.8c0-3.7-2.5-4-5.3-4h-1.4v-2.9h.3c4.6,0,12.5.3,18.9.3s14.3-.3,19.4-.3h.3v.3c0,1.1,0,2.5,0,3.9,0,2.6,0,5.5.2,7.7v.3s-.2,0-.2,0l-2.7.7v-.4c-.5-4.9-1.1-8.5-8.9-8.6h-10.2v19.2s8.7,0,8.7,0c4.4,0,5.2-2.3,5.7-6.4v-.3h2.9v.3c-.2,3-.2,5.9-.2,8.9s0,5.8.2,8.6v.3s-.3,0-.3,0l-2.6.5v-.4c-.5-4.6-.6-7.2-5.6-7.2h-8.8s0,17.4,0,17.4c0,4.6,4,4.6,8.9,4.6,9.1,0,12.8-.5,15.1-9v-.3c0,0,.4,0,.4,0l2.4.6v.3c-1.1,4-2,8-2.6,12.1v.3h-.3ZM552.9,224.4h0c.7-3.8,1.5-7.7,2.5-11.5l-1.5-.4c-2.3,8.5-6.7,9.3-15.6,9.2-4.8,0-9.6,0-9.6-5.3v-18h9.4c5.3,0,5.8,3.1,6.2,7.5l1.6-.3c-.1-2.8-.2-5.6-.2-8.4s0-5.7.2-8.6h-1.6c-.4,4-1.7,6.7-6.3,6.7h-9.4v-20.6h10.9c7.9,0,9.2,4,9.5,8.8l1.6-.4c-.1-2.1-.2-4.9-.2-7.4s0-2.5,0-3.6c-5.2,0-12.9.3-19.1.3s-13.9-.3-18.6-.3v1.6h.7c2.7,0,5.9.5,6,4.7v39.8c0,4.2-3.2,4.7-6,4.7h-.7v1.6c4.4,0,13.2-.3,19.9-.3,6.7,0,15.3.3,20.2.3h0Z"/>
    <path class="cls-3" d="M566.1,179.8c0-5.5-3-5.8-5.4-5.8h-1.4v-2.3c2.4,0,7.1.3,11.8.3s8.2-.3,12.2-.3c9.6,0,18.1,2.6,18.1,13.4s-4.6,11-10.6,13.4l13,19.4c2.1,3.2,3.6,4.1,7.4,4.6v2.3c-2.5,0-4.9-.3-7.4-.3s-4.8.3-7.1.3c-5.8-7.7-10.9-15.9-15.8-24.6h-5v16.3c0,5.9,2.7,6.1,6.2,6.1h1.4v2.3c-4.3,0-8.7-.3-13.1-.3s-7.2.3-11,.3v-2.3h1.4c2.8,0,5.4-1.3,5.4-4.1v-38.6h0ZM575.8,197.4h3.7c7.6,0,11.7-2.9,11.7-11.9s-4.3-11.1-11.1-11.1-3.3.2-4.3.3v22.6h0Z"/>
    <path class="cls-3" d="M611.2,225.1c-2.5,0-5-.3-7.5-.3s-4.7.3-7.4.2c-5.8-7.6-10.8-15.8-15.7-24.5h-4.5v15.9c0,5.7,2.4,5.7,5.9,5.8h1.7v2.9h-.3c-4.3,0-8.7-.3-13.1-.3s-7.2.3-11,.3h-.3v-2.9h1.7c2.7,0,5-1.2,5.1-3.8v-38.6c0-5.4-2.7-5.4-5.1-5.4h-1.7v-2.9h.3c2.5,0,7.1.3,11.8.3s8.2-.3,12.2-.3c9.6,0,18.4,2.7,18.4,13.7,0,6.9-4.5,11.1-10.4,13.5l12.8,19.1c2.1,3.2,3.4,3.9,7.1,4.4h.3v2.9h-.3ZM575.8,199.8h5.2v.2c5,8.7,10,16.9,15.6,24.5,2.3,0,4.8-.3,7.1-.3s4.8.3,7.1.3v-1.7c-3.6-.4-5.2-1.5-7.3-4.7l-13.2-19.8.4-.2c5.9-2.3,10.3-6.4,10.3-13.1,0-10.5-8.2-13-17.7-13-4,0-7.7.3-12.2.3s-9-.3-11.5-.3v1.6h1c2.4,0,5.7.4,5.7,6.1v38.6c0,3-2.9,4.4-5.7,4.4h-1v1.6c3.7,0,7.1-.3,10.7-.3s8.5.3,12.7.3v-1.6h-1c-3.5,0-6.6-.4-6.6-6.4v-16.6h.3ZM575.8,197.8h-.3v-23.3h.3c1-.1,2.1-.3,4.4-.3,6.9,0,11.4,4.5,11.4,11.4,0,9.1-4.4,12.2-12,12.2h-3.7ZM579.5,197.1h0c7.5,0,11.3-2.7,11.4-11.5,0-6.6-4.2-10.8-10.8-10.8-2.1,0-3,.2-4,.3v22h3.4Z"/>
    <path class="cls-3" d="M662.7,209.8h.1v-28.6c0-6.2-4.3-7.1-6.6-7.1h-1.7v-2.3c3.6,0,7.1.3,10.6.3s6.2-.3,9.4-.3v2.3h-1.1c-3.2,0-6.8.6-6.8,9.6v34.6c0,2.7,0,5.3.4,7.7h-2.9l-39.1-43.6v31.3c0,6.6,1.3,8.9,7.1,8.9h1.3v2.3c-3.3,0-6.5-.3-9.8-.3s-6.9.3-10.3.3v-2.3h1.1c5.2,0,6.8-3.6,6.8-9.6v-32c0-4.3-3.5-6.8-6.9-6.8h-1v-2.3c2.9,0,5.9.3,8.7.3s4.5-.3,6.8-.3l33.8,38.1h0Z"/>
    <path class="cls-3" d="M667.1,226.2h-3.1c0-.1-38.6-43.1-38.6-43.1v30.4c0,6.6,1.1,8.5,6.8,8.6h1.6v2.9h-.3c-3.3,0-6.5-.3-9.8-.3s-6.9.3-10.3.3h-.3v-2.9h1.4c5,0,6.5-3.3,6.5-9.3v-32c0-4-3.3-6.5-6.6-6.5h-1.3v-2.9h.3c2.9,0,5.9.3,8.7.3s4.4-.3,7-.2l33.4,37.6v-28c0-6-4.1-6.8-6.3-6.8h-2v-2.9h.3c3.6,0,7.1.3,10.6.3s6.2-.3,9.3-.3h.3v2.9h-1.5c-3.1,0-6.4.4-6.4,9.3v34.6c0,2.7,0,5.3.5,7.6v.4s-.3,0-.3,0h0ZM664.3,225.6h2.5c-.3-2.3-.4-4.8-.4-7.3v-34.6c0-9.1,3.9-10,7.1-10h.8v-1.6c-3,0-6,.3-9,.3s-6.9-.3-10.3-.3v1.6h1.3c2.3,0,6.9,1,6.9,7.5v28.7c-.1,0-.3.2-.3.2l-.2.2-33.8-38.2c-2.3,0-4.5.3-6.8.3s-5.7-.3-8.4-.3v1.6h.7c3.6,0,7.2,2.7,7.2,7.2v32c0,6.1-1.7,10-7.2,10h-.7s0,1.6,0,1.6c3.3,0,6.7-.3,10-.3s6.3.3,9.5.3v-1.6h-1c-6,0-7.5-2.6-7.5-9.2v-32.1l39.5,44.1h0ZM662.7,209.8h0l.2-.2-.2.2ZM662.6,209.7h0s0,0,0,0h0Z"/>
    <path class="cls-3" d="M686.8,213.9c-.8,2.6-1.7,4.6-1.7,5.9,0,2.3,3.2,2.7,5.7,2.7h.8v2.3c-3-.2-6.1-.3-9.2-.3s-5.5.1-8.2.3v-2.3h.5c3,0,5.5-1.7,6.6-4.9l12.2-34.9c1-2.8,2.4-6.6,2.8-9.4,2.4-.8,5.5-2.3,6.9-3.3.2,0,.4-.2.6-.2s.4,0,.5.2c.2.6.4,1.3.7,1.9l14,39.7c.9,2.7,1.8,5.5,2.8,7.7.9,2.1,2.5,3,5,3h.4v2.3c-3.4-.2-6.8-.3-10.5-.3s-7.5.1-11.4.3v-2.3h.8c1.7,0,4.7-.3,4.7-2.2s-.7-3-1.5-5.5l-3-8.8h-17.2l-2.4,7.9h0ZM697.9,180.3h-.2l-7.1,21.5h14.2l-7-21.5Z"/>
    <path class="cls-3" d="M727.3,225.1c-3.4-.2-6.8-.3-10.5-.3s-7.5.2-11.4.3h-.3s0-.3,0-.3v-2.6h1.2c1.8,0,4.4-.4,4.4-1.9,0-.9-.7-3-1.5-5.4l-2.9-8.6h-16.8l-2.4,7.7c-.8,2.6-1.7,4.6-1.7,5.8,0,1.9,2.9,2.3,5.4,2.3h1.2v3h-.3c-3-.2-6.1-.3-9.2-.3s-5.5.2-8.2.3h-.4s0-.3,0-.3v-2.6h.8c2.8,0,5.2-1.6,6.3-4.7l12.2-34.9c1-2.8,2.4-6.6,3-9.6,2.4-.8,5.4-2.3,6.9-3.3.2,0,.4-.2.7-.2.2,0,.6,0,.8.4.2.6.5,1.3.7,1.9l14,39.7c.9,2.7,1.8,5.5,2.8,7.7.9,2,2.3,2.8,4.7,2.8h.8v3h-.3ZM705.8,224.4h0c3.8-.1,7.4-.3,11.1-.3s6.8.1,10.1.3v-1.6h-.1c-2.6,0-4.4-1-5.3-3.2-1-2.3-1.9-5.1-2.8-7.8l-14-39.7c-.2-.6-.5-1.3-.7-1.8,0,0,0,0-.1,0h-.1c-.2,0-.2,0-.4.1-1.5,1-4.5,2.4-6.8,3-.5,2.9-1.8,6.7-2.8,9.5l-12.2,34.9c-1.2,3.3-3.8,5.2-6.9,5.2h-.1v1.6c2.6-.1,5.2-.3,7.9-.3s5.9.1,8.8.3v-1.6h-.5c-2.5,0-5.9-.3-6-3,0-1.5.9-3.5,1.7-6h.3c0,0-.3,0-.3,0l2.5-8.1h17.7l3,9c.9,2.4,1.5,4.5,1.5,5.6-.1,2.3-3.3,2.5-5,2.5h-.5v1.6h0ZM690.2,202.1h0l7.3-22.2h.4v.3h0s0,0,0,0v-.3h.2l7.2,22.2h-15.1ZM691.1,201.4h13.3l-6.6-20.4-6.7,20.4ZM697.6,180.4h.2c0,0-.2,0-.2,0Z"/>
    <path class="cls-3" d="M730.6,175.5c-5.7,0-5.9,1.4-7.1,6.9h-2.3c.3-2.1.7-4.2.9-6.5.3-2.1.4-4.2.4-6.4h1.8c.6,2.3,2.5,2.2,4.6,2.2h39.2c2,0,3.9,0,4.1-2.4l1.8.3c-.3,2.1-.6,4.1-.8,6.2-.2,2-.2,4.1-.2,6.1l-2.3.8c-.1-2.8-.5-7.3-5.6-7.3h-12.5v40.4c0,5.9,2.7,6.5,6.3,6.5h1.4v2.3c-3,0-8.3-.3-12.4-.3s-9.9.3-12.8.3v-2.3h1.4c4.2,0,6.3-.4,6.3-6.4v-40.6h-12.5Z"/>
    <path class="cls-3" d="M760.6,225.1c-3,0-8.3-.3-12.4-.3s-9.9.3-12.8.3h-.3v-2.9h1.8c4.2-.1,5.9-.2,6-6v-40.2h-12.1v-.7h12.8v40.9c0,6.1-2.5,6.7-6.6,6.7h-1.1v1.6c3,0,8.1-.3,12.5-.3s9,.3,12,.3v-1.6h-1.1c-3.7,0-6.6-.9-6.6-6.9v-40.8h12.8c5.1,0,5.8,4.4,5.9,7.2l1.7-.6c0-2,0-4,.2-6,.2-2,.5-3.9.8-5.8l-1.1-.2c-.3,2.2-2.5,2.3-4.4,2.3h-39.6c-1.8,0-3.7,0-4.4-2.2h-1.2c0,2.1-.2,4.2-.5,6.2-.2,2.1-.6,4.1-.9,6.1h1.6c1-5.3,1.7-7,7.3-6.9v.7c-5.6,0-5.5,1-6.7,6.7v.3h-3v-.4c.4-2.1.7-4.3,1-6.5.3-2.1.5-4.2.5-6.4v-.3h2.4v.2c.6,1.9,2,1.9,3.9,2h.4s39.2,0,39.2,0c2.1,0,3.6,0,3.8-2.1v-.4s.4,0,.4,0l2.2.3v.3c-.4,2-.7,4.1-.9,6.1-.2,2-.2,4.1-.2,6.1v.2h-.2c0,0-2.7,1.1-2.7,1.1v-.4c-.2-2.9-.5-7-5.3-7h-12.1v40.1c0,5.7,2.3,6.1,6,6.2h1.8v2.9h-.3Z"/>
    <path class="cls-3" d="M777,222.5h1.1c2.7,0,5.6-.4,5.6-4.3v-39.8c0-4-2.9-4.3-5.6-4.3h-1.1v-2.3c3,0,7.5.3,11.2.3s8.4-.3,11.9-.3v2.3h-1.1c-2.7,0-5.6.4-5.6,4.3v39.8c0,4,2.9,4.3,5.6,4.3h1.1v2.3c-3.7,0-8.2-.3-12-.3s-8.2.3-11.2.3v-2.3h0Z"/>
    <path class="cls-3" d="M800.1,225.1c-3.7,0-8.2-.3-12-.3s-8.2.3-11.2.3h-.3v-2.9h1.4c2.7,0,5.3-.3,5.3-4v-39.8c0-3.7-2.5-4-5.3-4h-1.4v-2.9h.3c3,0,7.5.3,11.2.3s8.3-.3,11.9-.3h.3v2.9h-1.4c-2.8,0-5.3.3-5.3,4v39.8c0,3.7,2.5,4,5.3,4h1.4v2.9h-.3ZM799.8,224.4h0v-1.6h-.7c-2.7,0-5.9-.5-5.9-4.7v-39.8c0-4.2,3.2-4.7,5.9-4.7h.7v-1.6c-3.5,0-7.9.3-11.6.3s-8-.3-10.9-.3v1.6h.7c2.7,0,5.9.5,5.9,4.7v39.8c0,4.2-3.2,4.7-5.9,4.7h-.7v1.6c2.9,0,7.2-.3,10.8-.3s8.1.3,11.7.3h0Z"/>
    <path class="cls-3" d="M830.4,170.6c16.2,0,29.1,10,29.1,26.2s-12.5,29.1-28.7,29.1-28.4-10.9-28.4-27.3,12.2-28,28-28h0ZM831.6,222.6h0c14.7,0,17.3-13,17.3-24.1s-6-24.5-18.6-24.5-17.2,11.9-17.2,22,6.2,26.6,18.5,26.6h0Z"/>
    <path class="cls-3" d="M802.1,198.7c0-16,12.4-28.3,28.4-28.4v.7c-15.6,0-27.7,12.1-27.7,27.7,0,16.2,12.2,26.9,28.1,26.9,16,0,28.4-11.5,28.4-28.8,0-16-12.7-25.9-28.8-25.9v-.7c16.3,0,29.4,10.2,29.4,26.5,0,17.7-12.7,29.4-29,29.4-16.2,0-28.7-11.1-28.8-27.6h0ZM812.7,196h0c0-10.2,4-22.4,17.6-22.4,12.9,0,18.9,13.7,18.9,24.9,0,11.1-2.6,24.4-17.6,24.4v-.6c14.4,0,16.9-12.7,17-23.8,0-11-5.9-24.2-18.3-24.2-13,0-16.9,11.6-16.9,21.7,0,13.5,6.2,26.2,18.2,26.3v.6c-12.6,0-18.8-13.2-18.9-26.9h0Z"/>
    <path class="cls-3" d="M910.7,209.8h.2v-28.6c0-6.2-4.3-7.1-6.6-7.1h-1.6v-2.3c3.6,0,7.1.3,10.6.3s6.2-.3,9.4-.3v2.3h-1.1c-3.2,0-6.8.6-6.8,9.6v34.6c0,2.7,0,5.3.5,7.7h-2.9l-39.1-43.6v31.3c0,6.6,1.3,8.9,7.1,8.9h1.3v2.3c-3.3,0-6.5-.3-9.8-.3s-6.9.3-10.3.3v-2.3h1.1c5.3,0,6.8-3.6,6.8-9.6v-32c0-4.3-3.5-6.8-6.9-6.8h-1v-2.3c2.9,0,5.9.3,8.7.3s4.5-.3,6.8-.3l33.8,38.1h0Z"/>
    <path class="cls-3" d="M915.1,226.2h-3.1c0-.1-38.5-43.1-38.5-43.1v30.4c0,6.6,1.1,8.5,6.8,8.5h1.6v2.9h-.3c-3.3,0-6.6-.3-9.8-.3s-6.9.3-10.3.3h-.3v-2.9h1.4c5,0,6.4-3.2,6.5-9.3v-32c0-4-3.3-6.5-6.6-6.5h-1.3v-2.9h.3c2.9,0,5.9.3,8.7.3s4.4-.3,7-.2l33.4,37.6v-27.9c0-6-4.1-6.8-6.3-6.8h-2v-2.9h.3c3.6,0,7.1.3,10.6.3s6.2-.3,9.4-.3h.3v2.9h-1.5c-3.1,0-6.4.4-6.4,9.3v34.6c0,2.7,0,5.3.4,7.6v.4c0,0-.3,0-.3,0h0ZM912.2,225.6h2.5c-.3-2.3-.4-4.8-.4-7.3v-34.6c0-9.1,3.8-10,7.1-10h.8v-1.6c-3,0-6,.3-9,.3s-6.9-.3-10.3-.3v1.6h1.3c2.4,0,6.9,1.1,6.9,7.5v28.7c0,0-.2.2-.2.2l-.2.2-33.8-38.2c-2.2,0-4.5.3-6.8.3s-5.6-.3-8.4-.3v1.6h.7c3.6,0,7.2,2.7,7.2,7.2v32c0,6.1-1.7,10-7.2,10h-.7s0,1.6,0,1.6c3.3,0,6.7-.3,10-.3s6.3.3,9.5.3v-1.6h-1c-6,0-7.5-2.6-7.5-9.2v-32.2l39.5,44.1h0ZM910.7,209.8h0l.2-.2-.2.2ZM910.5,209.7h0s0,0,0,0h0Z"/>
    <path class="cls-3" d="M934.8,213.9c-.7,2.6-1.7,4.6-1.7,5.9,0,2.3,3.2,2.7,5.7,2.7h.8v2.3c-3-.2-6.2-.3-9.2-.3s-5.5.1-8.2.3v-2.3h.4c3,0,5.5-1.7,6.6-4.9l12.2-34.9c1-2.8,2.4-6.6,2.8-9.4,2.4-.8,5.5-2.3,6.9-3.3.2,0,.4-.2.6-.2s.4,0,.5.2c.2.6.5,1.3.7,1.9l14,39.7c.9,2.7,1.8,5.5,2.8,7.7.9,2.1,2.5,3,5,3h.5v2.3c-3.4-.2-6.8-.3-10.5-.3s-7.5.1-11.4.3v-2.3h.8c1.7,0,4.7-.3,4.7-2.2s-.7-3-1.5-5.5l-2.9-8.8h-17.2l-2.4,7.9h0ZM945.9,180.3h-.2l-7.1,21.5h14.2l-7-21.5Z"/>
    <path class="cls-3" d="M975.3,225.1c-3.4-.1-6.8-.3-10.5-.3s-7.5.2-11.4.3h-.3s0-.3,0-.3v-2.6h1.2c1.8,0,4.4-.4,4.4-1.9,0-.9-.7-2.9-1.5-5.4l-2.9-8.6h-16.8l-2.3,7.7c-.8,2.6-1.7,4.6-1.6,5.8,0,1.9,2.8,2.3,5.4,2.3h1.2v3h-.3c-3-.2-6.1-.3-9.2-.3s-5.5.2-8.2.3h-.3s0-.3,0-.3v-2.6h.8c2.8,0,5.2-1.6,6.3-4.7l12.2-34.9c1-2.8,2.3-6.6,3-9.6,2.4-.8,5.4-2.3,6.9-3.3.2,0,.4-.2.7-.2.2,0,.6,0,.8.4.2.6.4,1.3.7,1.9l14,39.7c.9,2.7,1.8,5.5,2.8,7.7.9,2,2.3,2.8,4.7,2.8h.8v3h-.3ZM953.7,224.4h0c3.8-.1,7.5-.3,11.1-.3s6.8.1,10.2.3v-1.6h-.1c-2.6,0-4.4-1-5.3-3.2-1-2.3-1.9-5.1-2.8-7.8l-14-39.7c-.2-.6-.5-1.3-.6-1.8,0,0,0,0-.1,0h-.1c-.2,0-.2,0-.4.1-1.5.9-4.5,2.4-6.8,3-.5,2.9-1.8,6.7-2.8,9.5l-12.2,34.9c-1.2,3.3-3.8,5.2-6.9,5.2h-.1v1.6c2.6-.1,5.2-.3,7.9-.3s5.9.1,8.9.3v-1.6h-.5c-2.5,0-5.9-.3-6-3,0-1.5,1-3.4,1.7-6h.3c0,0-.3,0-.3,0l2.5-8.1h17.7l3,9c.8,2.4,1.5,4.5,1.5,5.6-.1,2.3-3.3,2.5-5,2.5h-.5v1.6h0ZM938.2,202.1h0l7.3-22.2h.4v.3h0s0,0,0,0v-.3h.2l7.2,22.2h-15.1ZM939.1,201.4h13.3l-6.6-20.3-6.7,20.3h0ZM945.6,180.4h.2c0,0-.2,0-.2,0Z"/>
    <path class="cls-3" d="M994.4,217.3c0,3,2.1,3.9,4.5,4.3,3.1.2,6.5.2,10-.2,3.2-.4,5.9-2.2,7.3-4.1,1.2-1.7,1.9-3.8,2.4-5.5h2.2c-.8,4.3-1.9,8.6-2.8,12.9-6.7,0-13.4-.3-20-.3s-13.4.3-20.1.3v-2.3h1c2.8,0,5.7-.4,5.7-5.1v-39c0-4-3-4.3-5.7-4.3h-1v-2.3c4,0,8,.3,12,.3s7.7-.3,11.6-.3v2.3h-1.9c-2.9,0-5.1,0-5.1,4.1v39.2h0Z"/>
    <path class="cls-3" d="M1018,225.1c-6.7,0-13.4-.3-20-.3s-13.4.3-20.1.3h-.3v-2.9h1.4c2.8,0,5.4-.3,5.4-4.8v-39.1c0-3.7-2.6-3.9-5.4-4h-1.4v-2.9h.3c4,0,8,.3,12,.3s7.6-.3,11.6-.3h.3v2.9h-2.2c-2.9,0-4.8,0-4.8,3.8v39.2c0,2.8,1.9,3.6,4.2,3.9,1.3,0,2.7.2,4.2.2s3.8,0,5.8-.3c3.1-.4,5.8-2.1,7.1-4,1.2-1.6,1.8-3.7,2.3-5.4v-.3h2.9v.4c-.9,4.3-2,8.6-2.9,12.9v.3h-.3ZM1017.8,224.4h0c.9-4.1,1.9-8.1,2.7-12.3h-1.6c-.5,1.7-1.1,3.7-2.3,5.4-1.4,2-4.2,3.8-7.5,4.2-2,.2-4,.3-5.8.3s-2.9,0-4.3-.2c-2.5-.3-4.9-1.3-4.9-4.6v-39.2c0-4.2,2.7-4.4,5.5-4.4h1.6v-1.6c-3.7,0-7.4.3-11.2.3s-7.8-.3-11.7-.3v1.6h.7c2.7,0,6,.5,6,4.7v39.1c0,4.9-3.3,5.4-6,5.4h-.7v1.6c6.6,0,13.1-.3,19.7-.3s13.2.3,19.8.3h0Z"/>
    <path class="cls-3" d="M1019.9,169.6c4.6,0,8,3.5,8,8s-3.4,8-8,8-8-3.5-8-8c0-4.5,3.4-8,8-8ZM1019.9,184.1h0c3.6,0,6.3-3.1,6.3-6.5s-2.7-6.5-6.3-6.5-6.3,3.1-6.3,6.5,2.8,6.5,6.3,6.5ZM1015.9,181.8h0v-.4c1-.1,1.2-.1,1.2-.7v-5.9c0-.8,0-1.1-1.1-1.1v-.4h4.1c1.4,0,2.7.7,2.7,2.1s-.8,2.1-1.9,2.4l1.3,1.8c.6.8,1.3,1.6,1.8,1.9v.3h-1.6c-.7,0-1.4-1.6-2.9-3.7h-.9v2.7c0,.5.2.5,1.2.6v.4h-3.9ZM1018.6,177.6h.9c1,0,1.5-.8,1.5-2s-.7-1.7-1.6-1.7h-.9v3.8Z"/>
    <path class="cls-1" d="M199.7,267.7c72.6.3,138.8-59.2,138.8-131.6S272.2,2.2,199.7,2.2h-62.4C63.8,2.2,3.4,57,3.4,136.1s60.4,131.9,133.9,131.6h62.4Z"/>
    <path class="cls-2" d="M137.5,13.2c-67.1,0-121.5,54.4-121.5,121.5,0,67.1,54.4,121.5,121.5,121.5,67.1,0,121.5-54.4,121.5-121.5,0-67.1-54.4-121.5-121.5-121.5ZM60.5,134.7h0c0-32.8,20.5-60.8,49.4-71.9v143.8c-28.9-11.1-49.4-39.1-49.4-71.9ZM165.1,206.6h0V62.8c28.9,11.1,49.4,39.1,49.5,71.9,0,32.8-20.6,60.8-49.5,71.9Z"/>
    <path class="cls-3" d="M381,59.4c0-12.6-6.5-11.7-12.8-11.9v-3.6c5.4.3,11,.3,16.5.3s13.8-.3,24.2-.3c36.1,0,55.8,24.1,55.8,48.9s-8.1,48.6-57.5,48.6-13.7-.3-20.2-.3-12.4.1-18.7.3v-3.6c8.4-.8,12.4-1.1,12.8-10.6V59.4h0ZM394.7,124.8h0c0,10.8,7.7,12,14.5,12,30.2,0,40.1-22.8,40.1-43.6s-16.8-44.9-43.7-44.9-8.4.4-10.9.6v76h0Z"/>
    <path class="cls-3" d="M469.6,137.7h2.6c3.9,0,6.7,0,6.7-4.6v-37.8c0-6.1-2.1-7-7.3-9.8v-2.2c6.6-2,14.4-4.6,14.9-5,1-.6,1.8-.7,2.5-.7s1,.8,1,2v53.6c0,4.6,3.1,4.6,7,4.6h2.4v3.6c-4.8,0-9.6-.3-14.7-.3s-10.1.1-15.2.3v-3.6h0ZM484.5,56h0c-3.6,0-6.8-3.3-6.8-7s3.4-6.7,6.8-6.7,6.8,2.9,6.8,6.7-3.1,7-6.8,7Z"/>
    <path class="cls-3" d="M512.7,96.1c0-5.2-1.5-6.6-8.1-9.2v-2.6c6-2,11.7-3.8,18.4-6.7.4,0,.8.3.8,1.4v9.1c8-5.7,14.8-10.5,24.2-10.5s16,8.7,16,19.5v36c0,4.6,3.1,4.6,7,4.6h2.5v3.6c-4.9,0-9.8-.3-14.8-.3s-10.1.1-15.1.3v-3.6h2.5c3.9,0,6.7,0,6.7-4.6v-36.2c0-8-4.9-11.9-12.8-11.9s-11.6,3.6-16.2,6.7v41.3c0,4.6,3.1,4.6,7,4.6h2.5v3.6c-4.9,0-9.8-.3-14.8-.3s-10.1.1-15.1.3v-3.6h2.5c3.9,0,6.7,0,6.7-4.6v-37h0Z"/>
    <path class="cls-3" d="M584.2,102.8c-.3,1.3-.3,3.4,0,8.1.8,13.3,9.4,24.1,20.5,24.1s13.7-4.2,18.9-9.4l1.9,2c-6.4,8.5-14.4,15.8-25.8,15.8-22.2,0-26.7-21.5-26.7-30.4,0-27.4,18.4-35.5,28.2-35.5s23.5,7.1,23.6,21.9c0,.8,0,1.7-.1,2.5l-1.3.8h-39.2ZM608.9,98.3h0c3.5,0,3.9-1.8,3.9-3.5,0-7.1-4.3-12.8-12.1-12.8s-14.4,6.3-16,16.3h24.3Z"/>
    <path class="cls-3" d="M628,137.7h3.8c3.9,0,6.7,0,6.7-4.6v-39.2c0-4.3-5.2-5.2-7.3-6.3v-2.1c10.2-4.3,15.8-8,17.1-8s1.2.4,1.2,1.8v12.6h.3c3.5-5.4,9.4-14.4,17.9-14.4s8,2.4,8,7.4-2.6,7.1-6.6,7.1-4.3-3.4-9.2-3.4-10.2,3.2-10.2,11.6v32.8c0,4.6,2.8,4.6,6.7,4.6h7.8v3.6c-7.7-.1-13.5-.3-19.5-.3s-11.6.1-16.6.3v-3.6h0Z"/>
    <path class="cls-3" d="M681.8,121.9c1.8,9.2,7.4,17,17.6,17s11.3-5,11.3-9.9c0-16.5-30.4-11.2-30.4-33.6s6.3-17.9,21.6-17.9,10.5,1.3,15.9,4.1l1,14.2h-3.2c-1.4-8.8-6.3-13.8-15.2-13.8s-10.9,3.2-10.9,9.2c0,16.4,32.4,11.3,32.4,33.2s-7.4,19-24,19-12.1-2-17-4.7l-1.5-16.1,2.5-.7h0Z"/>
    <path class="cls-3" d="M847.9,69.1h-3.5c-2.7-16.3-14.2-22.9-29.9-22.9s-39.4,10.7-39.4,44.3,20.1,48.5,41.6,48.5,25.3-9.5,28.1-24.2l3.2.8-3.2,20.4c-5.9,3.6-21.6,7.4-30.9,7.4-32.7,0-53.3-21.1-53.3-52.5s25.5-49.2,52.9-49.2,22.2,3.6,32.9,7.4l1.4,20h0Z"/>
    <path class="cls-3" d="M852.9,137.7h2.6c3.9,0,6.7,0,6.7-4.6V55.3c0-9.1-2.1-9.4-7.4-10.9v-2.2c5.6-1.8,11.4-4.3,14.4-6,1.5-.8,2.6-1.5,3.1-1.5.9,0,1.1.8,1.1,2v96.5c0,4.6,3.1,4.6,7,4.6h2.4v3.6c-4.7,0-9.6-.3-14.6-.3s-10,.1-15.2.3v-3.6h0Z"/>
    <path class="cls-3" d="M942.6,133.6c0,2.5,1.5,2.7,3.9,2.7s3.8-.1,5.6-.1v2.9c-6,.6-17.5,3.5-20.1,4.3l-.7-.4v-11.3c-8.4,6.8-14.8,11.7-24.7,11.7s-15.4-4.9-15.4-16.6v-35.8c0-3.6-.6-7.1-8.4-7.8v-2.7c5-.1,16.2-1,18-1s1.5,1,1.5,4v36c0,4.2,0,16.2,12.1,16.2s11-3.6,16.9-8.5v-37.6c0-2.8-6.7-4.3-11.7-5.7v-2.5c12.5-.8,20.4-2,21.8-2s1.1,1,1.1,2.5v51.5h0Z"/>
    <path class="cls-3" d="M970.3,87.6c5.6-4.7,13.1-10.1,20.8-10.1,16.2,0,26,14.1,26,29.3s-13.4,36.6-33.4,36.6-15.8-3.4-19.4-4.9l-4.2,3.2-2.9-1.5c1.2-8.2,1.9-16.3,1.9-24.9v-60c0-9.1-2.1-9.4-7.4-10.9v-2.2c5.6-1.8,11.4-4.3,14.4-6,1.5-.8,2.6-1.5,3.1-1.5.8,0,1.1.8,1.1,2v51h0ZM970.3,125.5h0c0,5.3,5,14.3,14.4,14.3,14.9,0,21.2-14.7,21.2-27.1s-11.4-27.6-22.3-27.6-9.5,3.4-13.3,6.6v33.9h0Z"/>
    <path class="cls-3" d="M368,222.5h1.1c2.7,0,5.6-.4,5.6-4.3v-39.8c0-4-2.9-4.3-5.6-4.3h-1.1v-2.3c3,0,7.5.3,11.3.3s8.3-.3,11.9-.3v2.3h-1.1c-2.7,0-5.6.4-5.6,4.3v39.8c0,4,2.9,4.3,5.6,4.3h1.1v2.3c-3.6,0-8.2-.3-12-.3s-8.2.3-11.2.3v-2.3h0Z"/>
    <path class="cls-3" d="M391.2,225.1c-3.7,0-8.2-.3-12-.3s-8.2.3-11.2.3h-.3v-2.9h1.4c2.8,0,5.3-.3,5.3-4v-39.8c0-3.7-2.5-4-5.3-4h-1.4v-2.9h.3c3,0,7.5.3,11.3.3s8.3-.3,11.9-.3h.3v2.9h-1.4c-2.8,0-5.3.3-5.3,4v39.8c0,3.7,2.5,3.9,5.3,4h1.4v2.9h-.3ZM390.9,224.5h0v-1.6h-.7c-2.7,0-5.9-.5-6-4.7v-39.8c0-4.2,3.2-4.7,6-4.7h.7v-1.6c-3.5,0-7.9.3-11.6.3s-8-.3-10.9-.3v1.6h.7c2.7,0,5.9.5,5.9,4.7v39.8c0,4.2-3.2,4.7-5.9,4.7h-.7v1.6c2.9,0,7.2-.3,10.8-.3,3.7,0,8.1.3,11.7.3h0Z"/>
    <path class="cls-3" d="M443.4,209.8h.2v-28.6c0-6.2-4.3-7.1-6.6-7.1h-1.7v-2.3c3.6,0,7.1.3,10.6.3s6.2-.3,9.4-.3v2.3h-1.1c-3.2,0-6.8.6-6.8,9.6v34.6c0,2.7,0,5.3.5,7.7h-2.9l-39.1-43.6v31.3c0,6.6,1.3,8.9,7.1,8.9h1.3v2.3c-3.3,0-6.5-.3-9.8-.3s-6.9.3-10.3.3v-2.3h1.1c5.2,0,6.8-3.6,6.8-9.6v-32c0-4.3-3.5-6.8-6.9-6.8h-1v-2.3c2.9,0,5.8.3,8.7.3s4.5-.3,6.8-.3l33.8,38.1h0Z"/>
    <path class="cls-3" d="M447.8,226.3h-3.1c0-.1-38.5-43.1-38.5-43.1v30.4c0,6.6,1.1,8.5,6.8,8.6h1.6v2.9h-.3c-3.3,0-6.6-.3-9.8-.3s-6.9.3-10.3.3h-.3v-2.9h1.4c5,0,6.5-3.3,6.5-9.3v-32c0-4-3.3-6.5-6.6-6.5h-1.3v-2.9h.3c2.9,0,5.9.3,8.7.3s4.5-.3,7-.2l33.4,37.6v-27.9c0-6-4.1-6.8-6.3-6.8h-2v-2.9h.3c3.6,0,7.1.3,10.6.3s6.2-.3,9.3-.3h.3v2.9h-1.5c-3.1,0-6.4.4-6.4,9.3v34.6c0,2.7,0,5.3.4,7.6v.4c0,0-.3,0-.3,0h0ZM444.9,225.6h2.5c-.3-2.3-.4-4.8-.4-7.3v-34.6c0-9.1,3.8-10,7.1-10h.8v-1.6c-3,0-6,.3-9,.3s-6.9-.3-10.3-.3v1.6s1.3,0,1.3,0c2.3,0,6.9,1,6.9,7.5v28.7c-.1,0-.3.2-.3.2l-.3.2-33.8-38.2c-2.3,0-4.5.3-6.8.3s-5.6-.3-8.4-.3v1.6s.7,0,.7,0c3.6,0,7.2,2.7,7.2,7.2v32c0,6.1-1.7,10-7.2,10h-.7s0,1.6,0,1.6c3.3,0,6.7-.3,10-.3s6.3.3,9.5.3v-1.6h-1c-6,0-7.5-2.6-7.5-9.2v-32.2l39.4,44.1h0ZM443.4,209.8h0l.2-.2-.2.2ZM443.2,209.7h0s0,0,0,0h0Z"/>
    <path class="cls-3" d="M466.6,175.5c-5.7,0-5.9,1.4-7.1,6.9h-2.3c.3-2.1.7-4.2.9-6.5.3-2.1.5-4.2.5-6.4h1.8c.6,2.3,2.5,2.2,4.6,2.2h39.2c2.1,0,4,0,4.1-2.4l1.8.3c-.3,2.1-.6,4.1-.8,6.2-.1,2-.1,4.1-.1,6.1l-2.3.8c-.2-2.8-.5-7.3-5.6-7.3h-12.5v40.4c0,5.9,2.7,6.5,6.3,6.5h1.4v2.3c-3,0-8.3-.3-12.4-.3s-9.9.3-12.8.3v-2.3h1.4c4.2,0,6.3-.4,6.3-6.4v-40.6h-12.5Z"/>
    <path class="cls-3" d="M496.6,225.1c-3,0-8.3-.3-12.4-.3s-9.9.3-12.8.3h-.3v-2.9h1.8c4.2-.1,5.9-.2,6-6v-40.2h-12.1v-.7h12.8v40.9c0,6.1-2.5,6.7-6.6,6.7h-1.1v1.6c3,0,8.1-.3,12.5-.3s9,.3,12,.3v-1.6h-1.1c-3.7,0-6.6-.9-6.6-6.9v-40.8h12.8c5.1,0,5.8,4.4,5.9,7.2l1.6-.6c0-2,0-4,.1-6,.2-2,.5-3.9.8-5.8l-1.2-.2c-.4,2.2-2.5,2.3-4.4,2.3h-39.6c-1.8,0-3.7,0-4.4-2.2h-1.3c0,2.1-.2,4.1-.4,6.2-.2,2.1-.6,4.1-.9,6.1h1.6c1-5.3,1.7-7,7.3-6.9v.7c-5.6.1-5.5,1-6.7,6.7v.3h-3v-.4c.3-2.1.7-4.2,1-6.5.3-2.1.5-4.2.5-6.4v-.3h2.4v.2c.6,1.9,2,1.9,3.9,2h39.6c2.1,0,3.7,0,3.8-2v-.4s.4,0,.4,0l2.1.3v.3c-.4,2-.7,4.1-.9,6.1-.2,2-.2,4.1-.2,6.1v.2h-.2c0,0-2.7,1.1-2.7,1.1v-.4c-.2-2.9-.5-7-5.3-7h-12.1v40.1c0,5.7,2.3,6.1,6,6.2h1.8v2.9h-.3Z"/>
    <path class="cls-3" d="M512.6,222.5h1.1c2.7,0,5.6-.4,5.6-4.3v-39.8c0-4-2.9-4.3-5.6-4.3h-1.1v-2.3c4.6,0,12.5.3,18.9.3s14.3-.3,19.4-.3c-.1,3.3,0,8.3.2,11.6l-2.3.6c-.4-4.9-1.3-8.9-9.3-8.9h-10.6v19.9h9c4.6,0,5.6-2.6,6-6.7h2.3c-.1,3-.2,5.9-.2,8.9s0,5.8.2,8.7l-2.3.5c-.4-4.6-.7-7.5-5.9-7.5h-9.1v17.7c0,4.9,4.4,4.9,9.3,4.9,9.1,0,13.1-.6,15.4-9.3l2.1.5c-1,4-1.9,8.1-2.6,12.1-4.9,0-13.6-.3-20.4-.3s-15.9.3-20.2.3v-2.3h0Z"/>
    <path class="cls-3" d="M553.2,225.1c-4.9,0-13.6-.3-20.4-.3s-15.9.3-20.2.3h-.3v-2.9h1.4c2.8,0,5.3-.3,5.3-4v-39.8c0-3.7-2.5-4-5.3-4h-1.4v-2.9h.3c4.6,0,12.5.3,18.9.3s14.3-.3,19.4-.3h.3v.3c0,1.1,0,2.5,0,3.9,0,2.6,0,5.5.2,7.7v.3s-.2,0-.2,0l-2.7.7v-.4c-.5-4.9-1.1-8.5-8.9-8.6h-10.2v19.2s8.7,0,8.7,0c4.4,0,5.2-2.3,5.7-6.4v-.3h2.9v.3c-.2,3-.2,5.9-.2,8.9s0,5.8.2,8.6v.3s-.3,0-.3,0l-2.6.5v-.4c-.5-4.6-.6-7.2-5.6-7.2h-8.8s0,17.4,0,17.4c0,4.6,4,4.6,8.9,4.6,9.1,0,12.8-.5,15.1-9v-.3c0,0,.4,0,.4,0l2.4.6v.3c-1.1,4-2,8-2.6,12.1v.3h-.3ZM552.9,224.4h0c.7-3.8,1.5-7.7,2.5-11.5l-1.5-.4c-2.3,8.5-6.7,9.3-15.6,9.2-4.8,0-9.6,0-9.6-5.3v-18h9.4c5.3,0,5.8,3.1,6.2,7.5l1.6-.3c-.1-2.8-.2-5.6-.2-8.4s0-5.7.2-8.6h-1.6c-.4,4-1.7,6.7-6.3,6.7h-9.4v-20.6h10.9c7.9,0,9.2,4,9.5,8.8l1.6-.4c-.1-2.1-.2-4.9-.2-7.4s0-2.5,0-3.6c-5.2,0-12.9.3-19.1.3s-13.9-.3-18.6-.3v1.6h.7c2.7,0,5.9.5,6,4.7v39.8c0,4.2-3.2,4.7-6,4.7h-.7v1.6c4.4,0,13.2-.3,19.9-.3,6.7,0,15.3.3,20.2.3h0Z"/>
    <path class="cls-3" d="M566.1,179.8c0-5.5-3-5.8-5.4-5.8h-1.4v-2.3c2.4,0,7.1.3,11.8.3s8.2-.3,12.2-.3c9.6,0,18.1,2.6,18.1,13.4s-4.6,11-10.6,13.4l13,19.4c2.1,3.2,3.6,4.1,7.4,4.6v2.3c-2.5,0-4.9-.3-7.4-.3s-4.8.3-7.1.3c-5.8-7.7-10.9-15.9-15.8-24.6h-5v16.3c0,5.9,2.7,6.1,6.2,6.1h1.4v2.3c-4.3,0-8.7-.3-13.1-.3s-7.2.3-11,.3v-2.3h1.4c2.8,0,5.4-1.3,5.4-4.1v-38.6h0ZM575.8,197.4h3.7c7.6,0,11.7-2.9,11.7-11.9s-4.3-11.1-11.1-11.1-3.3.2-4.3.3v22.6h0Z"/>
    <path class="cls-3" d="M611.2,225.1c-2.5,0-5-.3-7.5-.3s-4.7.3-7.4.2c-5.8-7.6-10.8-15.8-15.7-24.5h-4.5v15.9c0,5.7,2.4,5.7,5.9,5.8h1.7v2.9h-.3c-4.3,0-8.7-.3-13.1-.3s-7.2.3-11,.3h-.3v-2.9h1.7c2.7,0,5-1.2,5.1-3.8v-38.6c0-5.4-2.7-5.4-5.1-5.4h-1.7v-2.9h.3c2.5,0,7.1.3,11.8.3s8.2-.3,12.2-.3c9.6,0,18.4,2.7,18.4,13.7,0,6.9-4.5,11.1-10.4,13.5l12.8,19.1c2.1,3.2,3.4,3.9,7.1,4.4h.3v2.9h-.3ZM575.8,199.8h5.2v.2c5,8.7,10,16.9,15.6,24.5,2.3,0,4.8-.3,7.1-.3s4.8.3,7.1.3v-1.7c-3.6-.4-5.2-1.5-7.3-4.7l-13.2-19.8.4-.2c5.9-2.3,10.3-6.4,10.3-13.1,0-10.5-8.2-13-17.7-13-4,0-7.7.3-12.2.3s-9-.3-11.5-.3v1.6h1c2.4,0,5.7.4,5.7,6.1v38.6c0,3-2.9,4.4-5.7,4.4h-1v1.6c3.7,0,7.1-.3,10.7-.3s8.5.3,12.7.3v-1.6h-1c-3.5,0-6.6-.4-6.6-6.4v-16.6h.3ZM575.8,197.8h-.3v-23.3h.3c1-.1,2.1-.3,4.4-.3,6.9,0,11.4,4.5,11.4,11.4,0,9.1-4.4,12.2-12,12.2h-3.7ZM579.5,197.1h0c7.5,0,11.3-2.7,11.4-11.5,0-6.6-4.2-10.8-10.8-10.8-2.1,0-3,.2-4,.3v22h3.4Z"/>
    <path class="cls-3" d="M662.7,209.8h.1v-28.6c0-6.2-4.3-7.1-6.6-7.1h-1.7v-2.3c3.6,0,7.1.3,10.6.3s6.2-.3,9.4-.3v2.3h-1.1c-3.2,0-6.8.6-6.8,9.6v34.6c0,2.7,0,5.3.4,7.7h-2.9l-39.1-43.6v31.3c0,6.6,1.3,8.9,7.1,8.9h1.3v2.3c-3.3,0-6.5-.3-9.8-.3s-6.9.3-10.3.3v-2.3h1.1c5.2,0,6.8-3.6,6.8-9.6v-32c0-4.3-3.5-6.8-6.9-6.8h-1v-2.3c2.9,0,5.9.3,8.7.3s4.5-.3,6.8-.3l33.8,38.1h0Z"/>
    <path class="cls-3" d="M667.1,226.2h-3.1c0-.1-38.6-43.1-38.6-43.1v30.4c0,6.6,1.1,8.5,6.8,8.6h1.6v2.9h-.3c-3.3,0-6.5-.3-9.8-.3s-6.9.3-10.3.3h-.3v-2.9h1.4c5,0,6.5-3.3,6.5-9.3v-32c0-4-3.3-6.5-6.6-6.5h-1.3v-2.9h.3c2.9,0,5.9.3,8.7.3s4.4-.3,7-.2l33.4,37.6v-28c0-6-4.1-6.8-6.3-6.8h-2v-2.9h.3c3.6,0,7.1.3,10.6.3s6.2-.3,9.3-.3h.3v2.9h-1.5c-3.1,0-6.4.4-6.4,9.3v34.6c0,2.7,0,5.3.5,7.6v.4s-.3,0-.3,0h0ZM664.3,225.6h2.5c-.3-2.3-.4-4.8-.4-7.3v-34.6c0-9.1,3.9-10,7.1-10h.8v-1.6c-3,0-6,.3-9,.3s-6.9-.3-10.3-.3v1.6h1.3c2.3,0,6.9,1,6.9,7.5v28.7c-.1,0-.3.2-.3.2l-.2.2-33.8-38.2c-2.3,0-4.5.3-6.8.3s-5.7-.3-8.4-.3v1.6h.7c3.6,0,7.2,2.7,7.2,7.2v32c0,6.1-1.7,10-7.2,10h-.7s0,1.6,0,1.6c3.3,0,6.7-.3,10-.3s6.3.3,9.5.3v-1.6h-1c-6,0-7.5-2.6-7.5-9.2v-32.1l39.5,44.1h0ZM662.7,209.8h0l.2-.2-.2.2ZM662.6,209.7h0s0,0,0,0h0Z"/>
    <path class="cls-3" d="M686.8,213.9c-.8,2.6-1.7,4.6-1.7,5.9,0,2.3,3.2,2.7,5.7,2.7h.8v2.3c-3-.2-6.1-.3-9.2-.3s-5.5.1-8.2.3v-2.3h.5c3,0,5.5-1.7,6.6-4.9l12.2-34.9c1-2.8,2.4-6.6,2.8-9.4,2.4-.8,5.5-2.3,6.9-3.3.2,0,.4-.2.6-.2s.4,0,.5.2c.2.6.4,1.3.7,1.9l14,39.7c.9,2.7,1.8,5.5,2.8,7.7.9,2.1,2.5,3,5,3h.4v2.3c-3.4-.2-6.8-.3-10.5-.3s-7.5.1-11.4.3v-2.3h.8c1.7,0,4.7-.3,4.7-2.2s-.7-3-1.5-5.5l-3-8.8h-17.2l-2.4,7.9h0ZM697.9,180.3h-.2l-7.1,21.5h14.2l-7-21.5Z"/>
    <path class="cls-3" d="M727.3,225.1c-3.4-.2-6.8-.3-10.5-.3s-7.5.2-11.4.3h-.3s0-.3,0-.3v-2.6h1.2c1.8,0,4.4-.4,4.4-1.9,0-.9-.7-3-1.5-5.4l-2.9-8.6h-16.8l-2.4,7.7c-.8,2.6-1.7,4.6-1.7,5.8,0,1.9,2.9,2.3,5.4,2.3h1.2v3h-.3c-3-.2-6.1-.3-9.2-.3s-5.5.2-8.2.3h-.4s0-.3,0-.3v-2.6h.8c2.8,0,5.2-1.6,6.3-4.7l12.2-34.9c1-2.8,2.4-6.6,3-9.6,2.4-.8,5.4-2.3,6.9-3.3.2,0,.4-.2.7-.2.2,0,.6,0,.8.4.2.6.5,1.3.7,1.9l14,39.7c.9,2.7,1.8,5.5,2.8,7.7.9,2,2.3,2.8,4.7,2.8h.8v3h-.3ZM705.8,224.4h0c3.8-.1,7.4-.3,11.1-.3s6.8.1,10.1.3v-1.6h-.1c-2.6,0-4.4-1-5.3-3.2-1-2.3-1.9-5.1-2.8-7.8l-14-39.7c-.2-.6-.5-1.3-.7-1.8,0,0,0,0-.1,0h-.1c-.2,0-.2,0-.4.1-1.5,1-4.5,2.4-6.8,3-.5,2.9-1.8,6.7-2.8,9.5l-12.2,34.9c-1.2,3.3-3.8,5.2-6.9,5.2h-.1v1.6c2.6-.1,5.2-.3,7.9-.3s5.9.1,8.8.3v-1.6h-.5c-2.5,0-5.9-.3-6-3,0-1.5.9-3.5,1.7-6h.3c0,0-.3,0-.3,0l2.5-8.1h17.7l3,9c.9,2.4,1.5,4.5,1.5,5.6-.1,2.3-3.3,2.5-5,2.5h-.5v1.6h0ZM690.2,202.1h0l7.3-22.2h.4v.3h0s0,0,0,0v-.3h.2l7.2,22.2h-15.1ZM691.1,201.4h13.3l-6.6-20.4-6.7,20.4ZM697.6,180.4h.2c0,0-.2,0-.2,0Z"/>
    <path class="cls-3" d="M730.6,175.5c-5.7,0-5.9,1.4-7.1,6.9h-2.3c.3-2.1.7-4.2.9-6.5.3-2.1.4-4.2.4-6.4h1.8c.6,2.3,2.5,2.2,4.6,2.2h39.2c2,0,3.9,0,4.1-2.4l1.8.3c-.3,2.1-.6,4.1-.8,6.2-.2,2-.2,4.1-.2,6.1l-2.3.8c-.1-2.8-.5-7.3-5.6-7.3h-12.5v40.4c0,5.9,2.7,6.5,6.3,6.5h1.4v2.3c-3,0-8.3-.3-12.4-.3s-9.9.3-12.8.3v-2.3h1.4c4.2,0,6.3-.4,6.3-6.4v-40.6h-12.5Z"/>
    <path class="cls-3" d="M760.6,225.1c-3,0-8.3-.3-12.4-.3s-9.9.3-12.8.3h-.3v-2.9h1.8c4.2-.1,5.9-.2,6-6v-40.2h-12.1v-.7h12.8v40.9c0,6.1-2.5,6.7-6.6,6.7h-1.1v1.6c3,0,8.1-.3,12.5-.3s9,.3,12,.3v-1.6h-1.1c-3.7,0-6.6-.9-6.6-6.9v-40.8h12.8c5.1,0,5.8,4.4,5.9,7.2l1.7-.6c0-2,0-4,.2-6,.2-2,.5-3.9.8-5.8l-1.1-.2c-.3,2.2-2.5,2.3-4.4,2.3h-39.6c-1.8,0-3.7,0-4.4-2.2h-1.2c0,2.1-.2,4.2-.5,6.2-.2,2.1-.6,4.1-.9,6.1h1.6c1-5.3,1.7-7,7.3-6.9v.7c-5.6,0-5.5,1-6.7,6.7v.3h-3v-.4c.4-2.1.7-4.3,1-6.5.3-2.1.5-4.2.5-6.4v-.3h2.4v.2c.6,1.9,2,1.9,3.9,2h.4s39.2,0,39.2,0c2.1,0,3.6,0,3.8-2.1v-.4s.4,0,.4,0l2.2.3v.3c-.4,2-.7,4.1-.9,6.1-.2,2-.2,4.1-.2,6.1v.2h-.2c0,0-2.7,1.1-2.7,1.1v-.4c-.2-2.9-.5-7-5.3-7h-12.1v40.1c0,5.7,2.3,6.1,6,6.2h1.8v2.9h-.3Z"/>
    <path class="cls-3" d="M777,222.5h1.1c2.7,0,5.6-.4,5.6-4.3v-39.8c0-4-2.9-4.3-5.6-4.3h-1.1v-2.3c3,0,7.5.3,11.2.3s8.4-.3,11.9-.3v2.3h-1.1c-2.7,0-5.6.4-5.6,4.3v39.8c0,4,2.9,4.3,5.6,4.3h1.1v2.3c-3.7,0-8.2-.3-12-.3s-8.2.3-11.2.3v-2.3h0Z"/>
    <path class="cls-3" d="M800.1,225.1c-3.7,0-8.2-.3-12-.3s-8.2.3-11.2.3h-.3v-2.9h1.4c2.7,0,5.3-.3,5.3-4v-39.8c0-3.7-2.5-4-5.3-4h-1.4v-2.9h.3c3,0,7.5.3,11.2.3s8.3-.3,11.9-.3h.3v2.9h-1.4c-2.8,0-5.3.3-5.3,4v39.8c0,3.7,2.5,4,5.3,4h1.4v2.9h-.3ZM799.8,224.4h0v-1.6h-.7c-2.7,0-5.9-.5-5.9-4.7v-39.8c0-4.2,3.2-4.7,5.9-4.7h.7v-1.6c-3.5,0-7.9.3-11.6.3s-8-.3-10.9-.3v1.6h.7c2.7,0,5.9.5,5.9,4.7v39.8c0,4.2-3.2,4.7-5.9,4.7h-.7v1.6c2.9,0,7.2-.3,10.8-.3s8.1.3,11.7.3h0Z"/>
    <path class="cls-3" d="M830.4,170.6c16.2,0,29.1,10,29.1,26.2s-12.5,29.1-28.7,29.1-28.4-10.9-28.4-27.3,12.2-28,28-28h0ZM831.6,222.6h0c14.7,0,17.3-13,17.3-24.1s-6-24.5-18.6-24.5-17.2,11.9-17.2,22,6.2,26.6,18.5,26.6h0Z"/>
    <path class="cls-3" d="M802.1,198.7c0-16,12.4-28.3,28.4-28.4v.7c-15.6,0-27.7,12.1-27.7,27.7,0,16.2,12.2,26.9,28.1,26.9,16,0,28.4-11.5,28.4-28.8,0-16-12.7-25.9-28.8-25.9v-.7c16.3,0,29.4,10.2,29.4,26.5,0,17.7-12.7,29.4-29,29.4-16.2,0-28.7-11.1-28.8-27.6h0ZM812.7,196h0c0-10.2,4-22.4,17.6-22.4,12.9,0,18.9,13.7,18.9,24.9,0,11.1-2.6,24.4-17.6,24.4v-.6c14.4,0,16.9-12.7,17-23.8,0-11-5.9-24.2-18.3-24.2-13,0-16.9,11.6-16.9,21.7,0,13.5,6.2,26.2,18.2,26.3v.6c-12.6,0-18.8-13.2-18.9-26.9h0Z"/>
    <path class="cls-3" d="M910.7,209.8h.2v-28.6c0-6.2-4.3-7.1-6.6-7.1h-1.6v-2.3c3.6,0,7.1.3,10.6.3s6.2-.3,9.4-.3v2.3h-1.1c-3.2,0-6.8.6-6.8,9.6v34.6c0,2.7,0,5.3.5,7.7h-2.9l-39.1-43.6v31.3c0,6.6,1.3,8.9,7.1,8.9h1.3v2.3c-3.3,0-6.5-.3-9.8-.3s-6.9.3-10.3.3v-2.3h1.1c5.3,0,6.8-3.6,6.8-9.6v-32c0-4.3-3.5-6.8-6.9-6.8h-1v-2.3c2.9,0,5.9.3,8.7.3s4.5-.3,6.8-.3l33.8,38.1h0Z"/>
    <path class="cls-3" d="M915.1,226.2h-3.1c0-.1-38.5-43.1-38.5-43.1v30.4c0,6.6,1.1,8.5,6.8,8.5h1.6v2.9h-.3c-3.3,0-6.6-.3-9.8-.3s-6.9.3-10.3.3h-.3v-2.9h1.4c5,0,6.4-3.2,6.5-9.3v-32c0-4-3.3-6.5-6.6-6.5h-1.3v-2.9h.3c2.9,0,5.9.3,8.7.3s4.4-.3,7-.2l33.4,37.6v-27.9c0-6-4.1-6.8-6.3-6.8h-2v-2.9h.3c3.6,0,7.1.3,10.6.3s6.2-.3,9.4-.3h.3v2.9h-1.5c-3.1,0-6.4.4-6.4,9.3v34.6c0,2.7,0,5.3.4,7.6v.4c0,0-.3,0-.3,0h0ZM912.2,225.6h2.5c-.3-2.3-.4-4.8-.4-7.3v-34.6c0-9.1,3.8-10,7.1-10h.8v-1.6c-3,0-6,.3-9,.3s-6.9-.3-10.3-.3v1.6h1.3c2.4,0,6.9,1.1,6.9,7.5v28.7c0,0-.2.2-.2.2l-.2.2-33.8-38.2c-2.2,0-4.5.3-6.8.3s-5.6-.3-8.4-.3v1.6h.7c3.6,0,7.2,2.7,7.2,7.2v32c0,6.1-1.7,10-7.2,10h-.7s0,1.6,0,1.6c3.3,0,6.7-.3,10-.3s6.3.3,9.5.3v-1.6h-1c-6,0-7.5-2.6-7.5-9.2v-32.2l39.5,44.1h0ZM910.7,209.8h0l.2-.2-.2.2ZM910.5,209.7h0s0,0,0,0h0Z"/>
    <path class="cls-3" d="M934.8,213.9c-.7,2.6-1.7,4.6-1.7,5.9,0,2.3,3.2,2.7,5.7,2.7h.8v2.3c-3-.2-6.2-.3-9.2-.3s-5.5.1-8.2.3v-2.3h.4c3,0,5.5-1.7,6.6-4.9l12.2-34.9c1-2.8,2.4-6.6,2.8-9.4,2.4-.8,5.5-2.3,6.9-3.3.2,0,.4-.2.6-.2s.4,0,.5.2c.2.6.5,1.3.7,1.9l14,39.7c.9,2.7,1.8,5.5,2.8,7.7.9,2.1,2.5,3,5,3h.5v2.3c-3.4-.2-6.8-.3-10.5-.3s-7.5.1-11.4.3v-2.3h.8c1.7,0,4.7-.3,4.7-2.2s-.7-3-1.5-5.5l-2.9-8.8h-17.2l-2.4,7.9h0ZM945.9,180.3h-.2l-7.1,21.5h14.2l-7-21.5Z"/>
    <path class="cls-3" d="M975.3,225.1c-3.4-.1-6.8-.3-10.5-.3s-7.5.2-11.4.3h-.3s0-.3,0-.3v-2.6h1.2c1.8,0,4.4-.4,4.4-1.9,0-.9-.7-2.9-1.5-5.4l-2.9-8.6h-16.8l-2.3,7.7c-.8,2.6-1.7,4.6-1.6,5.8,0,1.9,2.8,2.3,5.4,2.3h1.2v3h-.3c-3-.2-6.1-.3-9.2-.3s-5.5.2-8.2.3h-.3s0-.3,0-.3v-2.6h.8c2.8,0,5.2-1.6,6.3-4.7l12.2-34.9c1-2.8,2.3-6.6,3-9.6,2.4-.8,5.4-2.3,6.9-3.3.2,0,.4-.2.7-.2.2,0,.6,0,.8.4.2.6.4,1.3.7,1.9l14,39.7c.9,2.7,1.8,5.5,2.8,7.7.9,2,2.3,2.8,4.7,2.8h.8v3h-.3ZM953.7,224.4h0c3.8-.1,7.5-.3,11.1-.3s6.8.1,10.2.3v-1.6h-.1c-2.6,0-4.4-1-5.3-3.2-1-2.3-1.9-5.1-2.8-7.8l-14-39.7c-.2-.6-.5-1.3-.6-1.8,0,0,0,0-.1,0h-.1c-.2,0-.2,0-.4.1-1.5.9-4.5,2.4-6.8,3-.5,2.9-1.8,6.7-2.8,9.5l-12.2,34.9c-1.2,3.3-3.8,5.2-6.9,5.2h-.1v1.6c2.6-.1,5.2-.3,7.9-.3s5.9.1,8.9.3v-1.6h-.5c-2.5,0-5.9-.3-6-3,0-1.5,1-3.4,1.7-6h.3c0,0-.3,0-.3,0l2.5-8.1h17.7l3,9c.8,2.4,1.5,4.5,1.5,5.6-.1,2.3-3.3,2.5-5,2.5h-.5v1.6h0ZM938.2,202.1h0l7.3-22.2h.4v.3h0s0,0,0,0v-.3h.2l7.2,22.2h-15.1ZM939.1,201.4h13.3l-6.6-20.3-6.7,20.3h0ZM945.6,180.4h.2c0,0-.2,0-.2,0Z"/>
    <path class="cls-3" d="M994.4,217.3c0,3,2.1,3.9,4.5,4.3,3.1.2,6.5.2,10-.2,3.2-.4,5.9-2.2,7.3-4.1,1.2-1.7,1.9-3.8,2.4-5.5h2.2c-.8,4.3-1.9,8.6-2.8,12.9-6.7,0-13.4-.3-20-.3s-13.4.3-20.1.3v-2.3h1c2.8,0,5.7-.4,5.7-5.1v-39c0-4-3-4.3-5.7-4.3h-1v-2.3c4,0,8,.3,12,.3s7.7-.3,11.6-.3v2.3h-1.9c-2.9,0-5.1,0-5.1,4.1v39.2h0Z"/>
    <path class="cls-3" d="M1018,225.1c-6.7,0-13.4-.3-20-.3s-13.4.3-20.1.3h-.3v-2.9h1.4c2.8,0,5.4-.3,5.4-4.8v-39.1c0-3.7-2.6-3.9-5.4-4h-1.4v-2.9h.3c4,0,8,.3,12,.3s7.6-.3,11.6-.3h.3v2.9h-2.2c-2.9,0-4.8,0-4.8,3.8v39.2c0,2.8,1.9,3.6,4.2,3.9,1.3,0,2.7.2,4.2.2s3.8,0,5.8-.3c3.1-.4,5.8-2.1,7.1-4,1.2-1.6,1.8-3.7,2.3-5.4v-.3h2.9v.4c-.9,4.3-2,8.6-2.9,12.9v.3h-.3ZM1017.8,224.4h0c.9-4.1,1.9-8.1,2.7-12.3h-1.6c-.5,1.7-1.1,3.7-2.3,5.4-1.4,2-4.2,3.8-7.5,4.2-2,.2-4,.3-5.8.3s-2.9,0-4.3-.2c-2.5-.3-4.9-1.3-4.9-4.6v-39.2c0-4.2,2.7-4.4,5.5-4.4h1.6v-1.6c-3.7,0-7.4.3-11.2.3s-7.8-.3-11.7-.3v1.6h.7c2.7,0,6,.5,6,4.7v39.1c0,4.9-3.3,5.4-6,5.4h-.7v1.6c6.6,0,13.1-.3,19.7-.3s13.2.3,19.8.3h0Z"/>
    <path class="cls-3" d="M1019.9,169.6c4.6,0,8,3.5,8,8s-3.4,8-8,8-8-3.5-8-8c0-4.5,3.4-8,8-8ZM1019.9,184.1h0c3.6,0,6.3-3.1,6.3-6.5s-2.7-6.5-6.3-6.5-6.3,3.1-6.3,6.5,2.8,6.5,6.3,6.5ZM1015.9,181.8h0v-.4c1-.1,1.2-.1,1.2-.7v-5.9c0-.8,0-1.1-1.1-1.1v-.4h4.1c1.4,0,2.7.7,2.7,2.1s-.8,2.1-1.9,2.4l1.3,1.8c.6.8,1.3,1.6,1.8,1.9v.3h-1.6c-.7,0-1.4-1.6-2.9-3.7h-.9v2.7c0,.5.2.5,1.2.6v.4h-3.9ZM1018.6,177.6h.9c1,0,1.5-.8,1.5-2s-.7-1.7-1.6-1.7h-.9v3.8Z"/>
  </g>
</svg>