<?xml version="1.0" encoding="UTF-8"?>
<svg xmlns="http://www.w3.org/2000/svg" version="1.1" viewBox="0 0 879.4 692.6">
  <defs>
    <style>
      .cls-1 {
        fill: #231f20;
      }

      .cls-2 {
        fill: #f79410;
      }

      .cls-3 {
        fill: #f79e1b;
      }

      .cls-4 {
        fill: #eb001b;
      }

      .cls-5 {
        fill: #ff5f00;
      }
    </style>
  </defs>
  <!-- Generator: Adobe Illustrator 28.7.0, SVG Export Plug-In . SVG Version: 1.2.0 Build 4)  -->
  <g>
    <g id="Calque_1">
      <g>
        <g id="g274">
          <path id="path272" class="cls-1" d="M859.4,677.6v1.8h1.6c.3,0,.6,0,.9-.2.2-.2.4-.4.3-.7,0-.3-.1-.5-.3-.7-.3-.2-.6-.3-.9-.2h-1.6ZM861.1,676.3c.7,0,1.4.2,2,.6.5.4.7.9.7,1.5,0,.5-.2,1-.5,1.4-.4.4-1,.6-1.6.7l2.2,2.5h-1.7l-2-2.5h-.7v2.5h-1.4v-6.6h3.1ZM860.6,685.2c.7,0,1.5-.1,2.2-.4.7-.3,1.2-.7,1.7-1.2.5-.5.9-1.1,1.2-1.8.6-1.4.6-3,0-4.3-.3-.7-.7-1.3-1.2-1.8-.5-.5-1.1-.9-1.7-1.2-.7-.3-1.4-.4-2.2-.4-.7,0-1.5.1-2.2.4-.7.3-1.3.7-1.8,1.2-1.6,1.6-2,4-1.2,6.1.3.7.7,1.3,1.2,1.8.5.5,1.1.9,1.8,1.2.7.3,1.4.4,2.2.4M860.6,672.5c1.9,0,3.8.7,5.1,2.1.7.6,1.2,1.4,1.5,2.3.8,1.8.8,3.8,0,5.5-.4.8-.9,1.6-1.5,2.3-.7.6-1.4,1.2-2.3,1.5-.9.4-1.9.6-2.8.6-1,0-2-.2-2.9-.6-.9-.4-1.7-.9-2.3-1.5-.6-.7-1.2-1.4-1.5-2.3-.8-1.8-.8-3.8,0-5.5.4-.8.9-1.6,1.5-2.3.7-.7,1.5-1.2,2.3-1.5.9-.4,1.9-.6,2.9-.6M190.4,647.1c-.8-11.9,8.2-22.2,20.1-23,.6,0,1.2,0,1.7,0,11.9,0,21.6,9.5,21.7,21.4,0,.5,0,1.1,0,1.6.8,11.9-8.1,22.1-20,22.9-.5,0-1.1,0-1.6,0-11.9.2-21.7-9.4-21.8-21.3,0-.6,0-1.2,0-1.7M248.6,647.1v-36h-15.6v8.7c-5.4-7-13.9-10.9-22.7-10.5-19.9,0-36,16.1-36,36,0,.6,0,1.3,0,1.9-.9,19.9,14.5,36.7,34.3,37.6.5,0,1.1,0,1.6,0,8.8.3,17.3-3.6,22.7-10.5v8.7h15.6v-35.8ZM776.4,647.1c-.8-12,8.2-22.4,20.2-23.2,12-.8,22.4,8.2,23.2,20.2,0,1,0,2,0,3,.8,12-8.2,22.4-20.2,23.2-12,.8-22.4-8.2-23.2-20.2,0-1,0-2,0-3M834.6,647.1v-65h-15.6v37.6c-5.4-7-13.9-10.9-22.7-10.5-19.9,0-36,16.2-35.9,36.1,0,.6,0,1.2,0,1.8-.9,19.9,14.5,36.7,34.3,37.6.5,0,1.1,0,1.6,0,8.8.3,17.3-3.6,22.7-10.5v8.7h15.6v-35.8ZM442.5,623.2c9.8-.2,18,7.6,18.2,17.4,0,0,0,0,0,0h-37.3c.5-10.1,9-17.9,19.1-17.5M442.8,609.2c-19.4-.4-35.4,15-35.9,34.3,0,1.2,0,2.4.1,3.6-1.2,19.5,13.6,36.4,33.1,37.6,1.2,0,2.5,0,3.7,0,10.8.3,21.2-3.3,29.5-10.3l-7.7-11.4c-5.9,4.8-13.3,7.4-20.9,7.5-10.7.9-20.3-6.9-21.5-17.6h53.4c0-2,.3-3.9.3-6,1.8-19-12.2-35.7-31.1-37.5-1,0-2.1-.1-3.1-.1M631.4,647.1c-.7-12,8.5-22.3,20.5-23,12-.7,22.3,8.5,23,20.5,0,.8,0,1.6,0,2.4.7,12-8.5,22.3-20.5,23-12,.7-22.3-8.5-23-20.5,0-.8,0-1.6,0-2.4M689.6,647.1v-36h-15.6v8.7c-5.4-6.9-13.9-10.8-22.7-10.5-19.9,0-36,16.1-36,36,0,.6,0,1.2,0,1.8-.9,19.9,14.5,36.7,34.3,37.6.5,0,1.1,0,1.6,0,8.8.3,17.3-3.6,22.7-10.5v8.7h15.6v-35.8ZM543.2,647.1c-.8,20,14.8,36.9,34.8,37.7,1.2,0,2.3,0,3.5,0,9.4.5,18.6-2.6,25.8-8.6l-7.5-12.7c-5.4,4.1-12,6.4-18.8,6.5-11.8.1-21.6-9.4-21.7-21.2,0-.6,0-1.1,0-1.7-.9-11.8,8-22.1,19.9-22.9.6,0,1.2,0,1.8,0,6.8,0,13.4,2.3,18.8,6.5l7.5-12.6c-7.2-6-16.5-9-25.8-8.6-20-1.1-37.1,14.2-38.3,34.2,0,1.2,0,2.4,0,3.5M744.6,609.5c-7.7-.3-15,3.6-19,10.3v-8.7h-15.5v71.9h15.6v-40.3c0-11.9,5.1-18.5,15.3-18.5,3.4,0,6.7.6,9.8,1.8l4.8-14.7c-3.6-1.3-7.3-1.9-11.1-2M325.8,616.8c-8.8-5.3-19-7.9-29.3-7.5-18.2,0-29.9,8.7-29.9,23s8.7,18.9,24.8,21.2l7.4,1.1c8.6,1.2,12.6,3.4,12.6,7.5s-5.7,8.7-16.4,8.7c-8.6.3-17-2.4-24-7.5l-7.4,12.1c9.2,6.4,20.2,9.7,31.3,9.4,20.7,0,32.8-9.8,32.8-23.4s-9.4-19.2-25.1-21.5l-7.5-1.1c-6.8-.9-12.2-2.2-12.2-7s5.2-8.5,13.7-8.5c7.9.1,15.6,2.2,22.4,6.2l6.7-12.5ZM527.3,609.3c-7.7-.2-15,3.8-18.9,10.5v-8.7h-15.5v71.9h15.6v-40.3c0-11.9,5.1-18.5,15.3-18.5,3.4,0,6.7.6,9.8,1.8l4.8-14.7c-3.6-1.3-7.3-1.9-11.1-2M394,611.1h-25.5v-21.8h-15.8v21.8h-14.6v14.3h14.6v32.8c0,16.7,6.5,26.6,24.9,26.6,6.9,0,13.7-1.9,19.5-5.5l-4.4-13.4c-4.2,2.5-8.9,3.9-13.7,4.1-7.8,0-10.3-4.8-10.3-12v-32.5h25.5l-.3-14.2ZM160.4,683v-45.2c1-14.7-10.1-27.5-24.9-28.5-1.1,0-2.3,0-3.4,0-10.1-.7-19.8,4.2-25.3,12.8-5-8.3-14.1-13.2-23.8-12.8-8.4-.4-16.4,3.6-21,10.7v-8.9h-15.6v71.9h15.8v-39.9c-1.3-9.2,5.1-17.7,14.3-19,1.1-.2,2.2-.2,3.3-.1,10.3,0,15.6,6.8,15.6,18.9v40h15.8v-39.8c-1.1-9.4,5.6-17.9,15-19,.9-.1,1.7-.1,2.6-.1,10.7,0,15.8,6.8,15.8,18.9v40h15.8Z"/>
        </g>
        <g id="g278">
          <path id="path276" class="cls-2" d="M869.1,444v-10.5h-2.7l-3.1,7.2-3.1-7.2h-2.7v10.5h1.9v-7.9l2.9,6.8h2.1l2.9-6.8v7.9h1.9ZM851.7,444v-8.7h3.4v-1.8h-8.8v1.8h3.4v8.7h2Z"/>
        </g>
        <path id="path280" class="cls-5" d="M558.1,489h-236.8V63.7h236.8v425.3Z"/>
        <g id="g284">
          <path id="path282" class="cls-4" d="M336.5,276.4c0-83,38-161.5,103.4-212.7C322.3-28.7,152.3-8.3,59.9,109.2-32.4,226.7-12,396.8,105.5,489.1c47.7,37.5,106.5,57.8,167.1,57.8,60.7.1,119.6-20.3,167.2-57.8-65.3-51.3-103.4-129.7-103.4-212.7"/>
        </g>
        <g id="g288">
          <path id="path286" class="cls-3" d="M877.4,276.4c0,149.4-121.1,270.6-270.5,270.6h0c-60.7,0-119.6-20.3-167.2-57.9,65.3-51.3,103.4-129.7,103.4-212.7,0-83-38-161.5-103.4-212.7,47.6-37.6,106.6-58,167.2-57.9,149.4,0,270.6,121.1,270.6,270.6h0"/>
        </g>
      </g>
    </g>
  </g>
</svg>