<?xml version="1.0" encoding="UTF-8"?>
<svg id="Calque_1" data-name="Calque 1" xmlns="http://www.w3.org/2000/svg" version="1.1" viewBox="0 0 71 51">
  <defs>
    <style>
      .cls-1 {
        fill: #fff;
      }

      .cls-1, .cls-2 {
        stroke: #000;
        stroke-linecap: round;
        stroke-linejoin: round;
        stroke-width: 1.5px;
      }

      .cls-2 {
        fill: none;
      }
    </style>
  </defs>
  <path id="Tracé_382" data-name="Tracé 382" class="cls-2" d="M23,25c5.3,0,9.6-4.3,9.6-9.6,0-5.3-4.3-9.6-9.6-9.6-5.3,0-9.6,4.3-9.6,9.6,0,1.9.6,3.8,1.7,5.4"/>
  <line id="Ligne_354" data-name="Ligne 354" class="cls-2" x1="23" y1="15.9" x2="26.5" y2="12.9"/>
  <line id="Ligne_355" data-name="Ligne 355" class="cls-2" x1="23" y1="15.9" x2="17.7" y2="11.4"/>
  <path id="Tracé_383" data-name="Tracé 383" class="cls-2" d="M23,16.9c.6,0,1-.5,1-1s-.5-1-1-1-1,.5-1,1h0c0,.6.5,1,1,1"/>
  <path id="Tracé_384" data-name="Tracé 384" class="cls-2" d="M12.1,19.8l2.4.8.6.2.2-.6.8-2.5"/>
  <line id="Ligne_356" data-name="Ligne 356" class="cls-2" x1="4.8" y1="38.7" x2="16.9" y2="38.7"/>
  <line id="Ligne_357" data-name="Ligne 357" class="cls-2" x1="8.8" y1="32.9" x2="20.9" y2="32.9"/>
  <line id="Ligne_358" data-name="Ligne 358" class="cls-2" x1="4.8" y1="27" x2="16.9" y2="27"/>
  <rect class="cls-1" x="32.7" y="20.3" width="33.5" height="22.2" rx="4.2" ry="4.2" transform="translate(98.9 62.8) rotate(180)"/>
  <line class="cls-2" x1="32.7" y1="27" x2="65.5" y2="27"/>
  <line class="cls-2" x1="51.8" y1="32.4" x2="61.5" y2="32.4"/>
  <circle class="cls-1" cx="32.8" cy="38.7" r="6.4"/>
  <polyline class="cls-2" points="29.6 38.7 32.2 41.3 35.5 36.6"/>
</svg>