<?xml version="1.0" encoding="UTF-8"?>
<svg id="Calque_1" data-name="Calque 1" xmlns="http://www.w3.org/2000/svg" version="1.1" viewBox="0 0 273 270">
  <defs>
    <style>
      .cls-1 {
        fill: #f7931a;
      }

      .cls-1, .cls-2 {
        stroke-width: 0px;
      }

      .cls-2 {
        fill: #fff;
      }
    </style>
  </defs>
  <g id="Layer_1">
    <g id="_1421344023328" data-name=" 1421344023328">
      <path class="cls-1" d="M266.1,167.3c-17.8,71.5-90.3,115.1-161.9,97.3C32.7,246.7-10.9,174.2,7,102.7,24.8,31.1,97.3-12.4,168.8,5.4c71.6,17.8,115.1,90.3,97.3,161.9h0s0,0,0,0Z"/>
      <path class="cls-2" d="M195.4,115.9c2.7-17.8-10.9-27.3-29.4-33.7l6-24.1-14.7-3.7-5.8,23.4c-3.9-1-7.8-1.9-11.7-2.8l5.9-23.6-14.6-3.7-6,24.1c-3.2-.7-6.3-1.4-9.4-2.2h0c0,0-20.2-5.1-20.2-5.1l-3.9,15.7s10.9,2.5,10.6,2.6c5.9,1.5,7,5.4,6.8,8.5l-6.8,27.4c.4.1.9.3,1.5.5-.5-.1-1-.3-1.5-.4l-9.6,38.4c-.7,1.8-2.6,4.5-6.7,3.5.1.2-10.7-2.7-10.7-2.7l-7.3,16.8,19.1,4.8c3.5.9,7,1.8,10.4,2.7l-6.1,24.4,14.6,3.7,6-24.1c4,1.1,7.9,2.1,11.7,3l-6,24,14.7,3.7,6.1-24.3c25,4.7,43.8,2.8,51.7-19.8,6.4-18.2-.3-28.7-13.5-35.5,9.6-2.2,16.8-8.5,18.7-21.5h0s0,0,0,0ZM161.9,162.9c-4.5,18.2-35.2,8.4-45.1,5.9l8-32.3c9.9,2.5,41.8,7.4,37.1,26.4h0ZM166.4,115.7c-4.1,16.6-29.6,8.1-37.9,6.1l7.3-29.3c8.3,2.1,34.9,5.9,30.6,23.2h0Z"/>
    </g>
  </g>
</svg>