<?xml version="1.0" encoding="UTF-8"?>
<svg id="Calque_1" data-name="Calque 1" xmlns="http://www.w3.org/2000/svg" xmlns:xlink="http://www.w3.org/1999/xlink" version="1.1" viewBox="0 0 683.9 225.9">
  <defs>
    <style>
      .cls-1 {
        fill: url(#Dégradé_sans_nom_6);
      }

      .cls-1, .cls-2, .cls-3 {
        stroke-width: 0px;
      }

      .cls-2 {
        fill: url(#Dégradé_sans_nom_2);
      }

      .cls-3 {
        fill: #000;
      }
    </style>
    <radialGradient id="Dégradé_sans_nom_6" data-name="Dégradé sans nom 6" cx="-214.1" cy="497.7" fx="-214.1" fy="497.7" r=".6" gradientTransform="translate(40148.3 105188) scale(187.1 -211.2)" gradientUnits="userSpaceOnUse">
      <stop offset="0" stop-color="#fc0"/>
      <stop offset="0" stop-color="#ffc800"/>
      <stop offset=".2" stop-color="#ffbd00"/>
      <stop offset=".3" stop-color="#ffab00"/>
      <stop offset=".3" stop-color="#ff9100"/>
      <stop offset=".4" stop-color="#ff7000"/>
      <stop offset=".5" stop-color="#ff4700"/>
      <stop offset=".6" stop-color="#ff1800"/>
      <stop offset=".6" stop-color="red"/>
      <stop offset="1" stop-color="red"/>
    </radialGradient>
    <radialGradient id="Dégradé_sans_nom_2" data-name="Dégradé sans nom 2" cx="-213.6" cy="497.7" fx="-213.6" fy="497.7" r=".7" gradientTransform="translate(29857.7 105309.5) scale(139.6 -211.4)" gradientUnits="userSpaceOnUse">
      <stop offset="0" stop-color="#00b4e6"/>
      <stop offset=".2" stop-color="#00b0e3"/>
      <stop offset=".4" stop-color="#01a5db"/>
      <stop offset=".6" stop-color="#0292cd"/>
      <stop offset=".8" stop-color="#0377ba"/>
      <stop offset=".9" stop-color="#0455a1"/>
      <stop offset="1" stop-color="#054696"/>
    </radialGradient>
  </defs>
  <path id="Shape1" class="cls-3" d="M195.5,163.4c0,2.9-2,6.3-4.5,7.7l-87.2,50.4c-2.5,1.4-6.5,1.4-9,0L7.6,171.1c-2.5-1.4-4.5-4.9-4.5-7.7V62.5c0-2.9,2-6.3,4.5-7.7L94.8,4.4c2.5-1.4,6.5-1.4,9,0l87.2,50.4c2.5,1.4,4.5,4.9,4.5,7.7v100.8ZM679.4,69.8h-78v18.7h28v79.8h22.1v-79.8h27.9v-18.7ZM324.9,69.8h-78.1v18.7h28v79.8h22.1v-79.8h28v-18.7ZM550.8,66.7c-24.6,0-38.2,15.7-38.2,38.4v63.1h21.8v-63.6c0-9.9,5.8-17.5,16.6-17.5s16.5,9,16.5,17.5v63.6h21.8v-63.1c.1-22.7-14-38.4-38.6-38.4h0ZM468.4,69.8v98.5h21.8v-98.5h-21.8ZM394.3,108.8l.7,4.4,20.5,55.1h8.9l27.9-98.5h-21.5l-13.3,51.7-.8,5.6-1.1-5.6-17.8-51.7h-7.1l-17.8,51.7-1.1,5.6-.7-5.6-13.3-51.7h-21.6l27.9,98.5h8.9l20.5-55.1.7-4.4"/>
  <path id="Shape2" class="cls-1" d="M144.8,113.2l-22.8,33.4-11.6-17.8,13.4-20.1c2.5-3.6,7.8-13.4,1.7-26.9-5-10.9-15.8-16.2-25.3-16.2s-19.8,4.9-25.4,16.2c-6.3,13-.8,23.1,1.5,26.5,0,0,7.5,10.9,13.7,20.2l10.1,14.6,15.2,23.3c.1.1,2.5,3.8,6.8,3.8s6.5-3.7,6.9-4l35.6-52.8h-19.7v-.2h0ZM100,114s-5.9-9-9.9-15.3c-4.2-6.8.5-16.9,9.9-16.9s14,10.1,9.9,16.9c-3.8,6.3-9.9,15.3-9.9,15.3Z"/>
  <path class="cls-2" d="M78.2,145.5l-22.3-31.4s-5.9-9-9.9-15.3c-4.2-6.8.5-16.9,9.9-16.9s2.3.1,3.3.5l7.8-14.4c-3.6-1.5-7.5-2.4-11-2.4-9.5,0-19.8,4.9-25.4,16.2-6.3,13-.8,23.1,1.5,26.5l39.1,57.9c.4.5,2.8,4.2,7,4.2s6.5-3.6,6.9-4l11.8-18-10.1-14.9-8.5,12h0Z"/>
</svg>