<?xml version="1.0" encoding="utf-8"?>
<!-- Generator: Adobe Illustrator 28.7.0, SVG Export Plug-In . SVG Version: 9.03 Build 54939)  -->
<svg version="1.0" id="Calque_1" xmlns="http://www.w3.org/2000/svg" xmlns:xlink="http://www.w3.org/1999/xlink" x="0px" y="0px"
	 viewBox="0 0 1454.3 225.9" style="enable-background:new 0 0 1454.3 225.9;" xml:space="preserve">
<style type="text/css">
	.st0{fill:#FFFFFF;}
	.st1{fill:#004B5A;}
</style>
<g>
	<g>
		<path class="st0" d="M205.1,81c-3-0.2-6-0.2-8.9-0.2c-28.5,0-53.6,6.2-73.9,18.3c17-22.7,25.6-52.5,25-87.5V6H82.7l0.1,6.4
			c0.4,23.7-5.1,41.5-16.4,52.4C51.7,79,27.9,81.1,10.5,80.2L5.9,80v64.9l2.6,0.2c3,0.2,6,0.2,8.9,0.2c28.5,0,53.6-6.2,73.9-18.3
			c-17,22.7-25.6,52.5-25,87.5v5.6h64.6l-0.1-6.4c-0.4-23.7,5.1-41.5,16.4-52.4c14.7-14.1,38.4-16.3,55.9-15.4l4.7,0.2V81.1
			L205.1,81z"/>
		<path class="st1" d="M365.1,86.1c0,24.7-17,47.4-46.5,47.4h-33.9v53.9h-26.7V38.7h60.7C348.1,38.7,365.1,61.5,365.1,86.1z
			 M284.8,62.9v46.5h29.9c14.4,0,23-9.2,23.3-23.3c-0.2-14.1-8.9-23.3-23.3-23.3L284.8,62.9L284.8,62.9z M667.6,168
			c-15.3,0-20.8-3.7-20.8-16.7v-49.9h27.9V79.3h-31.4c5.1-4.8,9.6-11.4,8.9-26.6h-24.2c0,1.3-1.3,24.8-22.8,34.2v14.5h16.6V154
			c0,25.2,15.8,36.4,41,36.4c4.4,0,8.9-0.2,13.2-0.9v-21.9C672.9,167.8,670.3,168,667.6,168L667.6,168z M794,38.8h-95v148.6h26.8
			v-60.8H789v-24h-63.1V63.1H794L794,38.8L794,38.8z M838.5,77h-25.4v110.5h25.4V77z M862.8,187.6h25.4v-63
			c0-18.1,14.2-25.9,25.9-25.9c10.5,0,18.4,6.4,18.4,22.1v66.9H958v-70c0-27.1-13.1-43.2-38.1-43.2c-14.4,0-28.8,7.8-33,22.3
			l-2-19.7h-22.1L862.8,187.6L862.8,187.6z M975.5,132.2c0-28.4,16.3-57.7,52.5-57.7c16.6,0,29,9.4,31,17.7l1.7-15h22.3v85
			c0,3.4,1.7,7.3,9.3,7.2v19l-5.8,0.7c-14.9,0.9-27.1-7.8-27.6-18.4v-0.2c-3.1,10.2-16.3,19.9-31,19.9
			C991.8,190.3,975.5,158.9,975.5,132.2L975.5,132.2z M1058.4,135.6V127c0-18.6-12.7-28.8-28.1-28.8c-19.7,0-28.6,18.4-28.6,34
			s6.2,34.2,28.6,34.2C1048.6,166.4,1058.4,152.6,1058.4,135.6L1058.4,135.6z M1113.2,77v110.5h25.4v-63c0-18.1,14.2-25.9,25.9-25.9
			c10.5,0,18.4,6.4,18.4,22.1v66.9h25.4v-70c0-27.1-13.1-43.2-38.1-43.2c-14.4,0-28.8,7.8-33,22.3l-2-19.7H1113.2L1113.2,77z
			 M1304.3,150.3c-4.6,15-15.4,16.5-22.3,16.5c-14.2,0-30.5-9.3-30.5-34s16.6-34.4,30.5-34.4c7.2,0,18.5,1.7,22.1,16.5l25-6.5
			c-5-20.9-25.4-33.5-47-33.5c-33.9,0-55.6,26.2-55.6,57.7s20.3,57.4,55.5,57.7c23,0.2,39.7-12.2,45.8-33.9L1304.3,150.3
			L1304.3,150.3z M1443.8,158.8c-6,18.3-21.4,31.5-46,31.5c-34.3,0-56.3-26.2-56.3-57.9c0-33.5,22-57.7,54.6-57.7
			c22.7,0.1,50.9,14,50.9,56.4l-0.2,7.3h-79.3c-0.7,16,12.9,29.8,30.1,29.8c8.9,0,19.2-2.7,23-15.5L1443.8,158.8L1443.8,158.8z
			 M1368.5,120.2l52.3-0.1c0-14.3-11-24.6-24.1-24.6C1381.8,95.5,1369.9,106.6,1368.5,120.2L1368.5,120.2z M826.6,60
			c7.8,0,14.5-6.5,14.5-14.4c0-7.9-6.7-14.4-14.5-14.4c-7.6,0-14.3,6.5-14.3,14.4C812.3,53.4,819,60,826.6,60z M428.9,73.6
			C396.1,73.6,373,100,373,132c0,32,22.8,58.4,56.2,58.4c33.2,0,55.9-26.6,55.9-58.4C485.1,100,462.3,73.6,428.9,73.6z M429.1,167.3
			c-18.1,0-32.8-15.8-32.8-35.5c0-19.7,14.7-35.5,32.8-35.5s32.8,15.8,32.8,35.5C461.9,151.5,447.2,167.3,429.1,167.3z M548.4,190.3
			c28.2,0,47-15.6,47-38.7c0-25.9-23.6-29-43.6-31.5c-14.6-2-27.5-4-27.5-14.8c0-7.6,6.4-13,19.9-13c14.2,0,21.8,6.2,24.9,17.1
			l24.3-6.3c-4.5-18.6-20-32.1-48.1-32.1c-28.4,0-46.7,13.7-46.7,36.9c0,26.2,23.4,29.7,43.8,32.8c15,2.3,27.2,4.2,27.2,14.5
			c0,8.3-7.6,13.6-20.4,13.6c-13.5,0-23.9-6-27.3-18.5l-24.5,6.4C503.2,177.8,523.2,190.3,548.4,190.3L548.4,190.3z"/>
	</g>
</g>
</svg>
