<?xml version="1.0" encoding="utf-8"?>
<!-- Generator: Adobe Illustrator 28.7.0, SVG Export Plug-In . SVG Version: 9.03 Build 54939)  -->
<svg version="1.0" id="Calque_1" xmlns="http://www.w3.org/2000/svg" xmlns:xlink="http://www.w3.org/1999/xlink" x="0px" y="0px"
	 viewBox="0 0 902.5 225.9" style="enable-background:new 0 0 902.5 225.9;" xml:space="preserve">
<style type="text/css">
	.st0{fill-rule:evenodd;clip-rule:evenodd;fill:#009EE3;}
	.st1{fill-rule:evenodd;clip-rule:evenodd;fill:#113984;}
	.st2{fill-rule:evenodd;clip-rule:evenodd;fill:#172C70;}
</style>
<g>
	<path id="Tracé_475" class="st0" d="M84,55.9h60.9c32.8,0,45,16.6,42.9,40.7c-3.2,40-27.4,62.3-59.4,62.3h-16.2
		c-4.3,0-7.2,2.9-8.6,10.8l-6.8,46.1c-0.4,2.9-2.2,4.7-4.3,5H53.8c-3.6,0-5-2.9-4-8.6L73.2,64.5C74.3,58.7,77.5,55.9,84,55.9z"/>
	<path id="Tracé_476" class="st1" d="M347.7,53c20.5,0,39.3,11.2,36.7,38.9c-3.2,32.8-20.9,51.1-48.6,51.1h-24.5
		c-3.6,0-5,2.9-6.1,8.6l-4.7,29.9c-0.7,4.7-2.9,6.8-6.5,6.8h-22.7c-3.6,0-5-2.2-4-7.6L286,60.8c1.1-5.8,3.2-7.9,7.2-7.9L347.7,53z
		 M310.9,117.5h18.4c11.5-0.4,19.1-8.3,19.8-22.7c0.4-9-5.4-15.1-15.1-15.1h-17.3L310.9,117.5z M446.4,179.4c2.2-1.8,4.3-2.9,4-0.4
		l-0.7,5.4c-0.4,2.9,0.7,4.3,3.6,4.3h20.2c3.2,0,5-1.4,5.8-6.5l12.2-77.8c0.7-4-0.4-5.8-3.2-5.8h-22c-2.2,0-2.9,1.1-3.6,4.3
		l-0.7,4.7c-0.4,2.5-1.4,2.9-2.5,0.4c-3.6-9-13.3-13-26.7-12.6c-31,0.7-51.9,24.1-54,54.4c-1.8,23.4,15.1,41.8,37.1,41.8
		C430.9,191.7,438.1,187,446.4,179.4L446.4,179.4z M429.4,167.5c-13.3,0-22.7-10.8-20.9-23.8c1.8-13,14.4-23.8,27.7-23.8
		c13.3,0,22.7,10.8,20.9,23.8C455.4,156.7,442.8,167.5,429.4,167.5z M530.7,98.4h-20.5c-4.3,0-5.8,3.2-4.7,6.8l25.2,74.2l-24.9,35.3
		c-2.2,2.9-0.4,5.8,2.5,5.8h23.1c2.7,0.3,5.4-0.9,6.8-3.2L616,105.6c2.5-3.6,1.4-7.2-2.5-7.2h-21.6c-3.6,0-5,1.4-7.2,4.7l-32.4,47.2
		L537.9,103C536.8,99.8,534.6,98.4,530.7,98.4L530.7,98.4z"/>
	<path id="Tracé_477" class="st0" d="M697.1,53c20.5,0,39.3,11.2,36.7,38.9c-3.2,32.8-20.9,51.1-48.6,51.1h-24.5
		c-3.6,0-5,2.9-6.1,8.6l-4.7,29.9c-0.7,4.7-2.9,6.8-6.5,6.8h-22.7c-3.6,0-5-2.2-4-7.6l18.7-119.9c1.1-5.8,3.2-7.9,7.2-7.9L697.1,53z
		 M660.3,117.5h18.4c11.5-0.4,19.1-8.3,19.8-22.7c0.4-9-5.4-15.1-15.1-15.1h-17.3L660.3,117.5L660.3,117.5z M795.8,179.4
		c2.2-1.8,4.3-2.9,4-0.4l-0.7,5.4c-0.4,2.9,0.7,4.3,3.6,4.3h20.2c3.2,0,5-1.4,5.8-6.5l12.2-77.8c0.7-4-0.4-5.8-3.2-5.8h-22
		c-2.2,0-2.9,1.1-3.6,4.3l-0.7,4.7c-0.4,2.5-1.4,2.9-2.5,0.4c-3.6-9-13.3-13-26.7-12.6c-31,0.7-51.9,24.1-54,54.4
		c-1.8,23.4,15.1,41.8,37.1,41.8C780.6,191.7,787.9,187,795.8,179.4L795.8,179.4z M778.8,167.5c-13.3,0-22.7-10.8-20.9-23.8
		s14.4-23.8,27.7-23.8s22.7,10.8,20.9,23.8C804.8,156.7,792.2,167.5,778.8,167.5z M871.8,189.1h-23.1c-1.4,0-2.9-1.1-2.9-2.5v-0.4
		l20.5-129.3c0.4-1.9,2.1-3.2,4-3.2h23.1c1.4,0,2.9,1.1,2.9,2.5v0.4l-20.5,129.3C875,187.7,873.6,189.1,871.8,189.1L871.8,189.1z"/>
	<path id="Tracé_478" class="st1" d="M45.8,5.1h60.9c17.3,0,37.5,0.7,51.1,12.6c9,7.9,13.7,20.9,12.6,34.6
		c-3.6,46.5-31.7,72.4-68.8,72.4H71.8c-5,0-8.6,3.2-10.1,12.6l-8.3,53.3c-0.7,3.6-2.2,5.4-4.7,5.8H11.3c-4.3,0-5.8-3.2-4.7-10.1
		l27-171.1C34.7,8.3,38.3,5.1,45.8,5.1z"/>
	<path id="Tracé_479" class="st2" d="M62.8,131.9l10.4-67.4c1.1-5.8,4.3-8.6,10.4-8.6h60.9c10.1,0,18.4,1.4,24.5,4.3
		c-6.1,41.4-32.8,64.5-67.7,64.5H71.4C67.4,124.7,64.6,126.5,62.8,131.9z"/>
</g>
</svg>
